# Blender v2.83.2 OBJ File: ''
# www.blender.org
mtllib arm_1.mtl
o DwarfFemale_HD_SDR
v -0.086105 1.100965 -0.295320
v -0.128699 1.115137 -0.310433
v -0.122717 1.130896 -0.289019
v -0.159148 1.129047 -0.287678
v -0.155747 1.114012 -0.306004
v -0.182446 1.103867 -0.292891
v -0.187861 1.120723 -0.267105
v -0.205687 1.079035 -0.263784
v -0.083831 1.122322 -0.271494
v -0.120701 1.147478 -0.281037
v -0.205278 1.150061 -0.241612
v -0.211449 1.162492 -0.227319
v -0.165150 1.187484 -0.238792
v -0.165818 1.167872 -0.259472
v -0.120876 1.189062 -0.242616
v -0.120520 1.169541 -0.264238
v -0.207565 1.177734 -0.203156
v -0.164613 1.200421 -0.211118
v -0.198489 1.188523 -0.175886
v -0.166519 1.203042 -0.177996
v -0.191624 1.189430 -0.157454
v -0.166543 1.200654 -0.157966
v -0.217242 1.169047 -0.159331
v -0.165001 1.146081 -0.275059
v -0.122826 1.204194 -0.210984
v -0.128647 1.206391 -0.176780
v -0.128647 1.206391 -0.176780
v -0.134334 1.205443 -0.158665
v -0.096803 1.197712 -0.155135
v -0.053122 1.109049 -0.196421
v -0.081589 1.091556 -0.202701
v -0.065634 1.108319 -0.241714
v -0.058097 1.128441 -0.226615
v -0.046950 1.127912 -0.182276
v -0.052862 1.155491 -0.207289
v -0.043212 1.148531 -0.165528
v -0.056431 1.171072 -0.187720
v -0.064780 1.176980 -0.157213
v -0.092804 1.197885 -0.172081
v -0.122826 1.204194 -0.210984
v -0.085041 1.193324 -0.202444
v -0.079491 1.177230 -0.229481
v -0.075935 1.157525 -0.249409
v -0.076335 1.138150 -0.260449
v -0.120520 1.169541 -0.264238
v -0.120876 1.189062 -0.242616
v -0.045750 1.096446 -0.183866
v -0.097558 1.083864 -0.178776
v -0.129745 1.099977 -0.183532
v -0.130095 1.082566 -0.198780
v -0.083581 1.077635 -0.219719
v -0.064938 1.079370 -0.267416
v -0.039500 1.124194 -0.174126
v -0.130838 1.067370 -0.210480
v -0.094017 1.049464 -0.244636
v -0.130838 1.067370 -0.210480
v -0.158208 1.067399 -0.208048
v -0.160340 1.041555 -0.235828
v -0.131739 1.040732 -0.237251
v -0.131739 1.040732 -0.237251
v -0.214211 1.084357 -0.170844
v -0.225239 1.110786 -0.163406
v -0.214774 1.094422 -0.186388
v -0.224666 1.127990 -0.192244
v -0.215827 1.113272 -0.215499
v -0.188008 1.052666 -0.240531
v -0.189367 1.074596 -0.210237
v -0.160003 1.078337 -0.173135
v -0.129745 1.099977 -0.183532
v -0.097558 1.083864 -0.178776
v -0.190145 1.084681 -0.192872
v -0.188277 1.075490 -0.173424
v -0.157255 1.092631 -0.185757
v -0.130095 1.082566 -0.198780
v -0.206321 1.100642 -0.231015
v -0.157649 1.080163 -0.195556
v -0.199087 1.135155 -0.254085
v -0.134334 1.205443 -0.158665
v -0.226500 1.143383 -0.160146
v -0.159059 1.014611 -0.265461
v -0.182024 1.079555 -0.323754
v -0.201160 1.055146 -0.296300
v -0.154619 1.091491 -0.334058
v -0.184594 1.025033 -0.277089
v -0.192888 1.027885 -0.329907
v -0.157651 0.991416 -0.296943
v -0.154592 1.065831 -0.362759
v -0.132236 0.990256 -0.297048
v -0.132556 1.014174 -0.266728
v -0.178400 1.051203 -0.352004
v -0.065670 1.050324 -0.298591
v -0.086691 1.075404 -0.323068
v -0.129741 1.094495 -0.334993
v -0.094008 1.021039 -0.274906
v -0.132556 1.014174 -0.266728
v -0.132236 0.990256 -0.297048
v -0.123486 1.028913 -0.417423
v -0.165580 1.015955 -0.411766
v -0.152999 1.043630 -0.387526
v -0.127968 1.045334 -0.387600
v -0.131233 1.069005 -0.361403
v -0.178789 1.032683 -0.372361
v -0.175512 1.012897 -0.386283
v -0.173355 1.004329 -0.401201
v -0.195605 0.985081 -0.382022
v -0.194058 0.998765 -0.365697
v -0.180368 1.002225 -0.309441
v -0.133059 0.966888 -0.318587
v -0.191902 1.013601 -0.346992
v -0.181658 0.980509 -0.353054
v -0.179963 0.966494 -0.364321
v -0.170534 0.955290 -0.353651
v -0.175717 0.980614 -0.335044
v -0.154846 0.973899 -0.326992
v -0.134514 0.944792 -0.335610
v -0.088275 1.024729 -0.376819
v -0.083162 1.010535 -0.400014
v -0.087915 1.047981 -0.351867
v -0.068345 1.022213 -0.328764
v -0.083968 0.995694 -0.360325
v -0.082797 0.981347 -0.371970
v -0.093637 0.994677 -0.305476
v -0.099353 0.971820 -0.334092
v -0.101037 0.952139 -0.345403
v -0.133059 0.966888 -0.318587
v -0.134514 0.944792 -0.335610
vt 0.100032 0.875330
vt 0.127062 0.875330
vt 0.126416 0.892047
vt 0.150050 0.893551
vt 0.150050 0.875330
vt 0.173036 0.875330
vt 0.173036 0.904535
vt 0.200024 0.875330
vt 0.096844 0.894524
vt 0.125000 0.925781
vt 0.186885 0.947574
vt 0.193690 0.960785
vt 0.163057 0.971133
vt 0.151286 0.951680
vt 0.138672 0.980469
vt 0.131616 0.955174
vt 0.208483 0.970187
vt 0.182401 0.979825
vt 0.222617 0.974830
vt 0.211223 0.982978
vt 0.232785 0.977594
vt 0.230975 0.985435
vt 0.235227 0.967013
vt 0.148959 0.927940
vt 0.189453 0.996094
vt 0.209399 0.996094
vt 0.041932 0.996094
vt 0.017578 0.996094
vt 0.015590 0.987148
vt 0.023700 0.942513
vt 0.026126 0.919977
vt 0.058172 0.906304
vt 0.053635 0.939335
vt 0.016891 0.961111
vt 0.045193 0.960495
vt 0.011574 0.969078
vt 0.033630 0.974326
vt 0.014154 0.980686
vt 0.028152 0.985070
vt 0.066407 0.996094
vt 0.057594 0.982010
vt 0.077159 0.967051
vt 0.087760 0.947927
vt 0.091068 0.929887
vt 0.112705 0.956518
vt 0.101563 0.984375
vt 0.011518 0.945171
vt 0.013672 0.925781
vt 0.001953 0.925781
vt 0.001953 0.919154
vt 0.027357 0.911677
vt 0.065298 0.875330
vt 0.009766 0.960938
vt 0.001953 0.910488
vt 0.027726 0.875330
vt 0.248047 0.909931
vt 0.239301 0.911406
vt 0.236958 0.875330
vt 0.248047 0.875330
vt 0.001953 0.875330
vt 0.240234 0.945313
vt 0.238315 0.953630
vt 0.232632 0.944906
vt 0.220649 0.949961
vt 0.214633 0.939734
vt 0.221884 0.875330
vt 0.225769 0.915506
vt 0.244747 0.945313
vt 0.248047 0.926680
vt 0.248047 0.945313
vt 0.231281 0.930148
vt 0.242519 0.945313
vt 0.243264 0.927317
vt 0.248047 0.914901
vt 0.210223 0.922744
vt 0.242614 0.922487
vt 0.180604 0.929110
vt 0.228516 0.996094
vt 0.237117 0.958821
vt 0.235202 0.847006
vt 0.173036 0.847006
vt 0.200024 0.847006
vt 0.150050 0.847006
vt 0.222132 0.847006
vt 0.200024 0.816180
vt 0.234635 0.816180
vt 0.150050 0.816180
vt 0.248047 0.816181
vt 0.248047 0.847005
vt 0.173036 0.816180
vt 0.065298 0.847006
vt 0.098885 0.847006
vt 0.127062 0.847006
vt 0.027726 0.847006
vt 0.001953 0.847005
vt 0.001953 0.816180
vt 0.129983 0.750028
vt 0.160062 0.750028
vt 0.153849 0.786887
vt 0.128445 0.786887
vt 0.127062 0.816180
vt 0.175329 0.786887
vt 0.180938 0.767639
vt 0.180938 0.750028
vt 0.196878 0.750028
vt 0.198038 0.772561
vt 0.221950 0.816180
vt 0.248047 0.786887
vt 0.199684 0.786887
vt 0.212748 0.769138
vt 0.211962 0.750028
vt 0.228244 0.750028
vt 0.221260 0.786887
vt 0.234391 0.786887
vt 0.248047 0.750000
vt 0.098885 0.786887
vt 0.098885 0.750028
vt 0.098885 0.816180
vt 0.065298 0.816180
vt 0.065298 0.786887
vt 0.065002 0.750028
vt 0.027726 0.816180
vt 0.027726 0.786887
vt 0.027324 0.750028
vt 0.001931 0.786887
vt 0.001931 0.750028
vn 0.6699 0.5311 -0.5187
vn 0.1577 0.7560 -0.6353
vn 0.2179 0.5951 -0.7736
vn -0.3510 0.6041 -0.7155
vn -0.3264 0.7183 -0.6144
vn -0.7116 0.5189 -0.4737
vn -0.7602 0.2941 -0.5793
vn -0.9968 -0.0248 -0.0766
vn 0.6878 0.3600 -0.6303
vn 0.1863 0.5114 -0.8389
vn -0.7565 0.2717 -0.5948
vn -0.8011 0.4255 -0.4208
vn -0.2978 0.7886 -0.5380
vn -0.3327 0.6171 -0.7131
vn 0.1500 0.8171 -0.5567
vn 0.1567 0.6590 -0.7357
vn -0.7368 0.6443 -0.2049
vn -0.2741 0.9259 -0.2601
vn -0.5668 0.8238 0.0102
vn -0.2630 0.9648 0.0007
vn -0.5075 0.8616 0.0069
vn -0.2839 0.9587 -0.0160
vn -0.8059 0.5641 -0.1798
vn -0.3821 0.4856 -0.7862
vn 0.1167 0.9611 -0.2504
vn 0.0706 0.9975 0.0047
vn 0.0439 0.9989 -0.0150
vn 0.3705 0.9286 0.0186
vn 0.8160 -0.3341 -0.4717
vn 0.4133 -0.9094 0.0468
vn 0.9692 -0.1480 -0.1970
vn 0.9332 0.0031 -0.3593
vn 0.8980 0.1093 -0.4262
vn 0.9027 0.2965 -0.3119
vn 0.8309 0.4503 -0.3267
vn 0.7771 0.6212 -0.1012
vn 0.6449 0.7625 -0.0527
vn 0.4141 0.9094 0.0380
vn 0.4913 0.8496 -0.1920
vn 0.5650 0.6947 -0.4452
vn 0.6466 0.4670 -0.6033
vn 0.7112 0.2526 -0.6561
vn 0.1568 0.6590 -0.7356
vn 0.1501 0.8171 -0.5567
vn 0.4437 -0.1928 -0.8752
vn -0.1291 -0.4955 -0.8590
vn 0.0590 -0.9809 -0.1856
vn 0.1669 -0.6460 0.7448
vn 0.6310 -0.6033 0.4876
vn 0.9984 -0.0571 0.0054
vn 0.6696 0.2797 -0.6881
vn 0.1682 -0.6618 0.7306
vn 0.5433 -0.6353 0.5488
vn 0.1682 -0.6617 0.7306
vn -0.0813 -0.7174 0.6918
vn -0.2050 -0.7286 0.6536
vn 0.1533 -0.7197 0.6772
vn -0.6697 -0.5989 -0.4391
vn -0.9389 -0.1570 -0.3063
vn -0.7304 -0.5822 -0.3572
vn -0.9815 -0.0160 -0.1908
vn -0.9035 -0.3138 -0.2918
vn -0.6716 -0.6068 0.4251
vn -0.5978 -0.6719 0.4373
vn 0.0180 -0.4612 -0.8871
vn -0.1291 -0.4954 -0.8590
vn -0.3619 -0.9273 -0.0955
vn -0.1093 -0.8020 -0.5872
vn 0.2561 -0.9662 0.0283
vn -0.9587 -0.2591 -0.1174
vn 0.0228 -0.6808 0.7321
vn -0.7602 0.1277 -0.6370
vn -0.9583 0.1877 -0.2154
vn -0.2582 -0.7521 0.6064
vn -0.7347 0.4838 -0.4756
vn -0.9913 -0.0517 -0.1211
vn -0.3077 0.7173 -0.6251
vn -0.7437 -0.5689 0.3510
vn -0.9940 -0.0444 -0.0999
vn -0.3387 -0.7732 0.5361
vn -0.3332 0.6882 -0.6445
vn 0.1067 -0.7269 0.6784
vn 0.1388 -0.7591 0.6360
vn -0.7817 0.4281 -0.4536
vn 0.9979 -0.0644 0.0093
vn 0.6820 0.5218 -0.5125
vn 0.1784 0.7277 -0.6623
vn 0.5582 -0.6221 0.5490
vn 0.1441 0.8146 -0.5618
vn -0.6440 0.5134 -0.5672
vn -0.3370 0.7292 -0.5955
vn 0.2259 0.8022 -0.5527
vn 0.1884 0.7246 -0.6629
vn -0.7891 0.4367 -0.4320
vn -0.8631 0.2920 -0.4120
vn -0.8520 0.3475 -0.3917
vn -0.9930 -0.0143 -0.1176
vn -0.9988 0.0474 0.0094
vn -0.7730 -0.5585 0.3009
vn -0.0133 -0.6976 0.7164
vn -0.9999 -0.0093 0.0058
vn -0.8723 -0.3629 0.3276
vn -0.8686 -0.4147 0.2714
vn -0.6921 -0.5087 0.5121
vn -0.7211 -0.5374 0.4373
vn -0.4700 -0.6692 0.5756
vn -0.0972 -0.6383 0.7637
vn 0.8072 0.4783 -0.3460
vn 0.8227 0.5386 -0.1818
vn 0.6951 0.5186 -0.4980
vn 0.9840 -0.1668 -0.0619
vn 0.9831 -0.1760 0.0514
vn 0.9531 -0.0111 0.3025
vn 0.6007 -0.6463 0.4707
vn 0.7201 -0.5033 0.4777
vn 0.6474 -0.4211 0.6352
vn -0.0972 -0.6382 0.7637
usemtl Default_OBJ
s 1
f 1/1/1 2/2/2 3/3/3
f 4/4/4 3/3/3 2/2/2
f 2/2/2 5/5/5 4/4/4
f 4/4/4 5/5/5 6/6/6
f 6/6/6 7/7/7 4/4/4
f 7/7/7 6/6/6 8/8/8
f 9/9/9 3/3/3 10/10/10
f 10/10/10 3/3/3 4/4/4
f 3/3/3 9/9/9 1/1/1
f 11/11/11 12/12/12 13/13/13
f 13/13/13 14/14/14 11/11/11
f 14/14/14 13/13/13 15/15/15
f 15/15/15 16/16/16 14/14/14
f 13/13/13 12/12/12 17/17/17
f 17/17/17 18/18/18 13/13/13
f 18/18/18 17/17/17 19/19/19
f 19/19/19 20/20/20 18/18/18
f 20/20/20 19/19/19 21/21/21
f 21/21/21 22/22/22 20/20/20
f 21/21/21 19/19/19 23/23/23
f 17/17/17 23/23/23 19/19/19
f 24/24/24 14/14/14 16/16/16
f 25/25/25 15/15/15 13/13/13
f 13/13/13 18/18/18 25/25/25
f 26/26/26 25/25/25 18/18/18
f 7/7/7 24/24/24 4/4/4
f 4/4/4 24/24/24 10/10/10
f 16/16/16 10/10/10 24/24/24
f 18/18/18 20/20/20 26/26/26
f 27/27/26 28/28/27 29/29/28
f 30/30/29 31/31/30 32/32/31
f 32/32/31 33/33/32 30/30/29
f 34/34/33 30/30/29 33/33/32
f 33/33/32 35/35/34 34/34/33
f 36/36/35 34/34/33 35/35/34
f 35/35/34 37/37/36 36/36/35
f 37/37/36 38/38/37 36/36/35
f 39/39/38 38/38/37 37/37/36
f 39/39/38 29/29/28 38/38/37
f 29/29/28 39/39/38 27/27/26
f 40/40/25 27/27/26 39/39/38
f 39/39/38 41/41/39 40/40/25
f 37/37/36 41/41/39 39/39/38
f 42/42/40 41/41/39 37/37/36
f 37/37/36 35/35/34 42/42/40
f 43/43/41 42/42/40 35/35/34
f 35/35/34 33/33/32 43/43/41
f 43/43/41 33/33/32 44/44/42
f 44/44/42 33/33/32 32/32/31
f 32/32/31 9/9/9 44/44/42
f 45/45/43 43/43/41 44/44/42
f 42/42/40 43/43/41 45/45/43
f 45/45/43 46/46/44 42/42/40
f 41/41/39 42/42/40 46/46/44
f 46/46/44 40/40/25 41/41/39
f 44/44/42 10/10/10 45/45/43
f 10/10/10 44/44/42 9/9/9
f 47/47/45 48/48/46 31/31/30
f 31/31/30 30/30/29 47/47/45
f 31/31/30 49/49/47 50/50/48
f 51/51/49 31/31/30 50/50/48
f 32/32/31 31/31/30 51/51/49
f 52/52/50 32/32/31 51/51/49
f 9/9/9 32/32/31 52/52/50
f 52/52/50 1/1/1 9/9/9
f 53/53/51 47/47/45 30/30/29
f 50/50/48 54/54/52 51/51/49
f 55/55/53 51/51/49 54/54/52
f 56/56/54 57/57/55 58/58/56
f 58/58/56 59/59/57 56/56/54
f 51/51/49 55/55/53 52/52/50
f 54/54/52 60/60/57 55/55/53
f 61/61/58 62/62/59 63/63/60
f 63/63/60 62/62/59 64/64/61
f 64/64/61 65/65/62 63/63/60
f 65/65/62 64/64/61 12/12/12
f 12/12/12 11/11/11 65/65/62
f 30/30/29 34/34/33 53/53/51
f 66/66/63 58/58/56 57/57/55
f 57/57/55 67/67/64 66/66/63
f 68/68/65 69/69/47 70/70/66
f 61/61/58 71/71/67 72/72/68
f 72/72/68 71/71/67 68/68/65
f 71/71/67 73/73/69 68/68/65
f 69/69/47 68/68/65 73/73/69
f 74/74/48 69/69/47 73/73/69
f 66/66/63 67/67/64 75/75/70
f 73/73/69 76/76/71 74/74/48
f 71/71/67 76/76/71 73/73/69
f 57/57/55 56/56/54 74/74/48
f 74/74/48 76/76/71 57/57/55
f 67/67/64 57/57/55 76/76/71
f 76/76/71 71/71/67 67/67/64
f 71/71/67 75/75/70 67/67/64
f 65/65/62 75/75/70 71/71/67
f 75/75/70 65/65/62 77/77/72
f 65/65/62 11/11/11 77/77/72
f 77/77/72 11/11/11 14/14/14
f 20/20/20 22/22/22 78/78/27
f 78/78/27 26/26/26 20/20/20
f 36/36/35 53/53/51 34/34/33
f 17/17/17 12/12/12 64/64/61
f 71/71/67 63/63/60 65/65/62
f 31/31/30 48/48/46 49/49/47
f 79/79/73 64/64/61 62/62/59
f 64/64/61 79/79/73 17/17/17
f 17/17/17 79/79/73 23/23/23
f 61/61/58 63/63/60 71/71/67
f 14/14/14 24/24/24 77/77/72
f 77/77/72 24/24/24 7/7/7
f 77/77/72 7/7/7 75/75/70
f 8/8/8 75/75/70 7/7/7
f 75/75/70 8/8/8 66/66/63
f 59/59/57 58/58/56 80/80/74
f 81/81/75 6/6/6 5/5/5
f 66/66/63 8/8/8 82/82/76
f 82/82/76 8/8/8 6/6/6
f 83/83/77 5/5/5 2/2/2
f 84/84/78 82/82/76 85/85/79
f 5/5/5 83/83/77 81/81/75
f 85/85/79 82/82/76 81/81/75
f 6/6/6 81/81/75 82/82/76
f 58/58/56 66/66/63 84/84/78
f 84/84/78 80/80/74 58/58/56
f 86/86/80 80/80/74 84/84/78
f 81/81/75 83/83/77 87/87/81
f 86/86/80 88/88/82 89/89/83
f 87/87/81 90/90/84 81/81/75
f 81/81/75 90/90/84 85/85/79
f 82/82/76 84/84/78 66/66/63
f 80/80/74 89/89/83 59/59/57
f 91/91/85 52/52/50 55/55/53
f 1/1/1 52/52/50 91/91/85
f 91/91/85 92/92/86 1/1/1
f 2/2/2 1/1/1 92/92/86
f 92/92/86 93/93/87 2/2/2
f 2/2/2 93/93/87 83/83/77
f 55/55/53 94/94/88 91/91/85
f 94/94/88 95/95/83 96/96/82
f 95/95/83 94/94/88 55/55/53
f 55/55/53 60/60/57 95/95/83
f 89/89/83 80/80/74 86/86/80
f 97/97/89 98/98/90 99/99/91
f 99/99/91 100/100/92 97/97/89
f 100/100/92 99/99/91 87/87/81
f 87/87/81 101/101/93 100/100/92
f 101/101/93 87/87/81 83/83/77
f 87/87/81 99/99/91 102/102/94
f 102/102/94 99/99/91 98/98/90
f 103/103/95 102/102/94 98/98/90
f 98/98/90 104/104/96 103/103/95
f 103/103/95 104/104/96 105/105/97
f 102/102/94 103/103/95 106/106/98
f 105/105/97 106/106/98 103/103/95
f 85/85/79 107/107/99 84/84/78
f 108/108/100 88/88/82 86/86/80
f 102/102/94 90/90/84 87/87/81
f 90/90/84 102/102/94 109/109/101
f 106/106/98 109/109/101 102/102/94
f 109/109/101 106/106/98 110/110/102
f 110/110/102 106/106/98 105/105/97
f 105/105/97 111/111/103 110/110/102
f 109/109/101 85/85/79 90/90/84
f 110/110/102 111/111/103 112/112/104
f 112/112/104 113/113/105 110/110/102
f 110/110/102 113/113/105 109/109/101
f 109/109/101 113/113/105 107/107/99
f 107/107/99 85/85/79 109/109/101
f 114/114/106 112/112/104 115/115/107
f 114/114/106 113/113/105 112/112/104
f 107/107/99 113/113/105 114/114/106
f 115/115/107 108/108/100 114/114/106
f 86/86/80 114/114/106 108/108/100
f 114/114/106 86/86/80 107/107/99
f 84/84/78 107/107/99 86/86/80
f 83/83/77 93/93/87 101/101/93
f 116/116/108 117/117/109 97/97/89
f 97/97/89 100/100/92 116/116/108
f 118/118/110 116/116/108 100/100/92
f 100/100/92 101/101/93 118/118/110
f 92/92/86 118/118/110 101/101/93
f 101/101/93 93/93/87 92/92/86
f 92/92/86 91/91/85 119/119/111
f 119/119/111 118/118/110 92/92/86
f 116/116/108 118/118/110 119/119/111
f 120/120/112 121/121/113 117/117/109
f 117/117/109 116/116/108 120/120/112
f 119/119/111 120/120/112 116/116/108
f 119/119/111 91/91/85 94/94/88
f 94/94/88 122/122/114 119/119/111
f 120/120/112 119/119/111 122/122/114
f 122/122/114 123/123/115 120/120/112
f 121/121/113 120/120/112 123/123/115
f 123/123/115 124/124/116 121/121/113
f 124/124/116 123/123/115 125/125/100
f 125/125/100 123/123/115 122/122/114
f 122/122/114 96/96/82 125/125/100
f 96/96/82 122/122/114 94/94/88
f 125/125/100 126/126/117 124/124/116
