# Blender v2.83.2 OBJ File: ''
# www.blender.org
mtllib boots.mtl
o DwarfFemale_HD_SDR
v -0.127753 0.120594 0.072678
v -0.136911 0.097686 0.103861
v -0.174664 0.099883 0.119386
v -0.193000 0.122244 0.083664
v -0.204786 0.097597 0.159386
v -0.224347 0.123539 0.127228
v -0.230050 0.121294 0.183092
v -0.186011 0.096981 0.201992
v -0.213569 0.144756 0.134861
v -0.158447 0.123369 0.254333
v -0.145642 0.099181 0.238306
v -0.110306 0.101364 0.224578
v -0.210603 0.119169 0.217531
v -0.216081 0.145742 0.177195
v -0.199911 0.146392 0.207881
v -0.159342 0.147964 0.231139
v -0.122689 0.126069 0.258361
v -0.080419 0.136183 0.247883
v -0.042411 0.142956 0.125694
v -0.068642 0.102589 0.129328
v -0.104881 0.098792 0.115606
v -0.136911 0.097686 0.103861
v -0.127753 0.120594 0.072678
v -0.082208 0.127417 0.085189
v -0.124597 0.149008 0.237086
v -0.138828 0.146669 0.086164
v -0.077858 0.276692 0.247953
v -0.086956 0.237722 0.243370
v -0.057472 0.234578 0.212586
v -0.046228 0.273256 0.213194
v -0.063978 0.313819 0.251395
v -0.029886 0.301008 0.217006
v -0.188728 0.146347 0.098081
v -0.150336 0.196231 0.076625
v -0.198364 0.199336 0.091636
v -0.235422 0.202475 0.127117
v -0.247781 0.254603 0.120470
v -0.252417 0.257586 0.170978
v -0.251767 0.315986 0.169300
v -0.225603 0.313214 0.215667
v -0.098269 0.197103 0.233356
v -0.094844 0.156592 0.231231
v -0.070856 0.161661 0.209606
v -0.072886 0.197456 0.208550
v -0.233483 0.202300 0.173392
v -0.214239 0.201625 0.210667
v -0.225453 0.257803 0.216106
v -0.123161 0.334642 0.266811
v -0.131767 0.291561 0.262000
v -0.134531 0.247961 0.252722
v -0.178269 0.301047 0.248545
v -0.178897 0.252908 0.241795
v -0.133644 0.199364 0.243364
v -0.171586 0.200994 0.237106
v -0.047956 0.142253 0.221764
v -0.065519 0.110036 0.211444
v -0.190950 0.336345 0.060292
v -0.130375 0.319764 0.041906
v -0.140858 0.282325 0.050308
v -0.200722 0.296458 0.070895
v -0.150839 0.242950 0.057017
v -0.207167 0.249425 0.076758
v -0.245764 0.312153 0.116950
v -0.049878 0.116942 0.169431
v -0.030333 0.148458 0.174281
v -0.054344 0.167694 0.166861
v -0.057183 0.200339 0.163058
v -0.043058 0.233914 0.161881
v -0.033242 0.270850 0.160925
v -0.014786 0.296028 0.159778
v -0.048625 0.271600 0.115497
v -0.058858 0.232903 0.119208
v -0.071722 0.197325 0.121003
v -0.066519 0.160139 0.122039
v -0.083281 0.274250 0.069895
v -0.070278 0.305333 0.060495
v -0.086211 0.234669 0.078356
v -0.140858 0.282325 0.050308
v -0.130375 0.319764 0.041906
v -0.138828 0.146669 0.086164
v -0.086283 0.150936 0.095900
v -0.150336 0.196231 0.076625
v -0.092222 0.197803 0.091545
v -0.150839 0.242950 0.057017
v -0.045686 0.340967 0.275250
v -0.002189 0.325108 0.235617
v -0.046036 0.384953 0.243133
v -0.005675 0.370242 0.208800
v -0.034212 0.363690 0.202568
v -0.021260 0.356056 0.187800
v -0.059670 0.371615 0.214844
v -0.096456 0.384566 0.232139
v -0.093867 0.402283 0.259539
v -0.114992 0.367719 0.293767
v -0.124734 0.394717 0.229342
v -0.133744 0.411731 0.248942
v -0.172842 0.345444 0.252095
v -0.172403 0.383450 0.279608
v -0.233778 0.398178 0.228231
v -0.181483 0.422469 0.217139
v -0.153328 0.404585 0.199284
v -0.221636 0.357167 0.215211
v -0.113722 0.352442 0.015814
v -0.188661 0.375211 0.021683
v -0.154031 0.401700 0.042706
v -0.089981 0.385478 0.040536
v -0.243292 0.392397 0.081995
v -0.231844 0.354619 0.108197
v -0.240339 0.358683 0.166908
v -0.094599 0.372777 0.064958
v -0.138406 0.383309 0.066904
v -0.191778 0.415864 0.097025
v -0.253247 0.402275 0.166261
v -0.164626 0.399622 0.100689
v -0.029506 0.298050 0.109050
v 0.034678 0.316811 0.156958
v 0.017936 0.361097 0.153200
v 0.017531 0.319281 0.092125
v -0.003652 0.350875 0.154794
v 0.006919 0.361364 0.108720
v -0.003119 0.351092 0.116957
v -0.033833 0.331272 0.038392
v -0.113722 0.352442 0.015814
v -0.028781 0.370386 0.062792
v -0.024082 0.354099 0.101386
v -0.041992 0.360726 0.088726
v -0.089981 0.385478 0.040536
v -0.094599 0.372777 0.064958
v -0.199461 0.422003 0.157331
v -0.167250 0.407291 0.150934
vt 0.497339 0.151300
vt 0.497339 0.124800
vt 0.479400 0.124800
vt 0.479400 0.151300
vt 0.445600 0.124800
vt 0.456800 0.151300
vt 0.434300 0.151300
vt 0.410600 0.124800
vt 0.456800 0.166600
vt 0.389000 0.153000
vt 0.381200 0.125100
vt 0.359500 0.133000
vt 0.410600 0.151300
vt 0.434300 0.166100
vt 0.410600 0.167500
vt 0.389000 0.169400
vt 0.369100 0.158300
vt 0.345500 0.169400
vt 0.291500 0.173300
vt 0.291600 0.147800
vt 0.274100 0.137900
vt 0.251696 0.125600
vt 0.251696 0.151400
vt 0.273800 0.165300
vt 0.368800 0.171300
vt 0.497339 0.166400
vt 0.345500 0.218600
vt 0.345500 0.203900
vt 0.326500 0.204700
vt 0.326500 0.218600
vt 0.345700 0.250000
vt 0.326500 0.250000
vt 0.479400 0.166400
vt 0.497339 0.183800
vt 0.479400 0.183800
vt 0.456800 0.183700
vt 0.456800 0.198900
vt 0.434300 0.198900
vt 0.434300 0.218600
vt 0.410600 0.218600
vt 0.344800 0.191400
vt 0.345500 0.179600
vt 0.326500 0.184200
vt 0.326500 0.192600
vt 0.434300 0.183400
vt 0.410600 0.183400
vt 0.410600 0.198900
vt 0.369100 0.250000
vt 0.369100 0.218600
vt 0.369100 0.201400
vt 0.389000 0.218600
vt 0.389000 0.198900
vt 0.369100 0.186200
vt 0.389000 0.183800
vt 0.327300 0.173800
vt 0.326400 0.150100
vt 0.479400 0.250000
vt 0.497339 0.250000
vt 0.497339 0.218600
vt 0.479400 0.218600
vt 0.497339 0.198900
vt 0.479400 0.198900
vt 0.456800 0.218600
vt 0.312700 0.157100
vt 0.312400 0.173900
vt 0.312400 0.183900
vt 0.312400 0.192300
vt 0.312400 0.205300
vt 0.312400 0.218600
vt 0.312400 0.250000
vt 0.291700 0.218600
vt 0.291700 0.204600
vt 0.291700 0.193000
vt 0.291700 0.183200
vt 0.273900 0.218600
vt 0.273900 0.250000
vt 0.273900 0.204200
vt 0.251696 0.218600
vt 0.251696 0.250000
vt 0.251696 0.166100
vt 0.273900 0.178300
vt 0.251696 0.183400
vt 0.273900 0.191200
vt 0.251696 0.198900
vt 0.345000 0.277500
vt 0.326500 0.277300
vt 0.345500 0.296800
vt 0.326500 0.296800
vt 0.334300 0.308600
vt 0.326500 0.308600
vt 0.345500 0.308600
vt 0.369100 0.308600
vt 0.369200 0.296800
vt 0.369100 0.277300
vt 0.389000 0.308600
vt 0.389000 0.296800
vt 0.389000 0.250000
vt 0.389000 0.277300
vt 0.410600 0.277300
vt 0.410600 0.296800
vt 0.410600 0.308600
vt 0.410600 0.250000
vt 0.497339 0.277300
vt 0.479400 0.277300
vt 0.479400 0.296800
vt 0.497339 0.296800
vt 0.456800 0.277300
vt 0.456800 0.250000
vt 0.434300 0.250000
vt 0.497339 0.308600
vt 0.479400 0.308600
vt 0.456800 0.296800
vt 0.434300 0.277300
vt 0.456800 0.308600
vt 0.291700 0.250000
vt 0.312400 0.277300
vt 0.312400 0.296800
vt 0.291700 0.277300
vt 0.312400 0.308600
vt 0.291700 0.296800
vt 0.291700 0.308600
vt 0.273900 0.277300
vt 0.251696 0.277300
vt 0.273900 0.296800
vt 0.282900 0.308600
vt 0.273900 0.308600
vt 0.251696 0.296800
vt 0.251696 0.308600
vt 0.434300 0.296800
vt 0.434300 0.308600
vn 0.0668 -0.2627 -0.9626
vn -0.0606 -0.7897 -0.6105
vn -0.2881 -0.8540 -0.4331
vn -0.5062 -0.2235 -0.8329
vn -0.6020 -0.7954 -0.0696
vn -0.9150 -0.1490 -0.3749
vn -0.9618 -0.1467 0.2313
vn -0.4694 -0.7780 0.4175
vn -0.9398 0.1271 -0.3172
vn -0.3083 -0.0414 0.9504
vn -0.0160 -0.5582 0.8296
vn 0.3075 -0.6679 0.6777
vn -0.7368 -0.2092 0.6429
vn -0.9670 0.1326 0.2176
vn -0.7185 0.1631 0.6762
vn -0.3404 0.2768 0.8986
vn 0.0492 -0.1039 0.9934
vn 0.4713 0.0012 0.8819
vn 0.8665 0.0850 -0.4919
vn 0.5786 -0.4276 -0.6945
vn 0.3675 -0.7358 -0.5688
vn -0.0605 -0.7897 -0.6105
vn 0.0667 -0.2627 -0.9626
vn 0.5380 -0.2262 -0.8121
vn -0.0318 0.3556 0.9341
vn -0.0221 0.1624 -0.9865
vn 0.4523 -0.2316 0.8613
vn 0.4424 -0.2534 0.8603
vn 0.8189 -0.3154 0.4795
vn 0.7981 -0.3659 0.4788
vn 0.2987 -0.5246 0.7972
vn 0.5811 -0.6760 0.4532
vn -0.5721 0.1741 -0.8015
vn -0.0513 -0.2731 -0.9606
vn -0.5311 -0.2798 -0.7998
vn -0.8762 -0.3258 -0.3551
vn -0.9071 -0.1330 -0.3995
vn -0.9657 -0.1301 0.2246
vn -0.9702 0.1492 0.1911
vn -0.7533 0.0574 0.6552
vn 0.4640 -0.1751 0.8684
vn 0.3338 0.3952 0.8558
vn 0.6771 0.4842 0.5542
vn 0.8337 -0.1604 0.5285
vn -0.9254 -0.2895 0.2445
vn -0.7157 -0.2113 0.6657
vn -0.7121 -0.1190 0.6919
vn -0.1362 -0.3882 0.9114
vn -0.0629 -0.1511 0.9865
vn -0.0569 -0.1842 0.9812
vn -0.4242 -0.0608 0.9035
vn -0.3771 -0.1436 0.9150
vn 0.0104 -0.1606 0.9870
vn -0.3536 -0.1595 0.9217
vn 0.7810 0.1269 0.6114
vn 0.5845 -0.5186 0.6241
vn -0.5703 -0.3341 -0.7504
vn -0.1161 -0.4032 -0.9077
vn -0.0430 -0.1943 -0.9800
vn -0.5538 -0.0559 -0.8308
vn -0.0663 -0.2641 -0.9622
vn -0.5561 -0.1827 -0.8108
vn -0.9080 0.1064 -0.4053
vn 0.8532 -0.5212 -0.0213
vn 0.9781 0.1927 0.0790
vn 0.8679 0.4960 0.0286
vn 0.9846 -0.1744 -0.0081
vn 0.9454 -0.3248 -0.0253
vn 0.8975 -0.4405 -0.0202
vn 0.6063 -0.7945 0.0336
vn 0.7824 -0.4298 -0.4508
vn 0.8495 -0.2947 -0.4376
vn 0.8874 -0.1154 -0.4464
vn 0.7615 0.3830 -0.5229
vn 0.5151 -0.3366 -0.7883
vn 0.3069 -0.6320 -0.7116
vn 0.5637 -0.2839 -0.7756
vn 0.5052 0.2412 -0.8286
vn 0.5511 -0.1937 -0.8117
vn 0.4399 -0.1466 0.8860
vn 0.7362 -0.2939 0.6097
vn 0.4413 0.8782 0.1844
vn 0.5024 0.8587 0.1011
vn -0.0557 0.8713 -0.4875
vn -0.2796 0.8742 -0.3970
vn 0.0761 0.8872 -0.4550
vn 0.2053 0.8239 -0.5282
vn 0.3038 0.9216 0.2414
vn -0.0029 0.0473 0.9989
vn 0.4627 0.7626 -0.4520
vn 0.1987 0.9616 0.1895
vn -0.4919 -0.2681 0.8284
vn -0.4074 0.1856 0.8942
vn -0.7758 0.3313 0.5370
vn -0.0099 0.9863 0.1647
vn 0.4731 0.8583 -0.1987
vn -0.8093 -0.1674 0.5630
vn 0.0562 -0.0825 -0.9950
vn -0.4343 0.0908 -0.8962
vn 0.1596 0.9140 -0.3731
vn 0.3140 0.8871 -0.3382
vn -0.8434 0.3017 -0.4446
vn -0.9188 -0.1628 -0.3595
vn -0.9886 -0.0452 0.1439
vn 0.1331 0.8751 0.4652
vn 0.3891 0.8484 0.3589
vn 0.0527 0.9840 -0.1700
vn -0.8944 0.4384 0.0879
vn 0.4991 0.8660 -0.0307
vn 0.5042 -0.7936 -0.3406
vn 0.9245 -0.3731 0.0778
vn 0.5065 0.8619 -0.0226
vn 0.8030 -0.3536 -0.4797
vn -0.4593 0.8717 -0.1709
vn 0.4134 0.9034 -0.1137
vn -0.5739 0.7744 0.2664
vn 0.4765 -0.2313 -0.8482
vn 0.4708 0.8308 -0.2970
vn -0.2102 0.8772 0.4317
vn 0.0601 0.9250 0.3752
vn -0.0224 0.9983 -0.0535
vn 0.4084 0.9053 -0.1166
usemtl Default_OBJ
s 1
f 1/1/1 2/2/2 3/3/3
f 3/3/3 4/4/4 1/1/1
f 4/4/4 3/3/3 5/5/5
f 5/5/5 6/6/6 4/4/4
f 7/7/7 5/5/5 8/8/8
f 5/5/5 7/7/7 6/6/6
f 9/9/9 6/6/6 7/7/7
f 10/10/10 11/11/11 12/12/12
f 8/8/8 11/11/11 10/10/10
f 10/10/10 13/13/13 8/8/8
f 8/8/8 13/13/13 7/7/7
f 14/14/14 7/7/7 13/13/13
f 7/7/7 14/14/14 9/9/9
f 15/15/15 13/13/13 10/10/10
f 13/13/13 15/15/15 14/14/14
f 10/10/10 16/16/16 15/15/15
f 16/16/16 10/10/10 17/17/17
f 12/12/12 17/17/17 10/10/10
f 12/12/12 18/18/18 17/17/17
f 19/19/19 20/20/20 21/21/21
f 22/22/22 23/23/23 24/24/24
f 21/21/21 24/24/24 19/19/19
f 24/24/24 21/21/21 22/22/22
f 17/17/17 25/25/25 16/16/16
f 26/26/26 1/1/1 4/4/4
f 27/27/27 28/28/28 29/29/29
f 29/29/29 30/30/30 27/27/27
f 31/31/31 27/27/27 30/30/30
f 30/30/30 32/32/32 31/31/31
f 4/4/4 33/33/33 26/26/26
f 34/34/34 26/26/26 33/33/33
f 33/33/33 4/4/4 6/6/6
f 6/6/6 9/9/9 33/33/33
f 35/35/35 33/33/33 9/9/9
f 9/9/9 36/36/36 35/35/35
f 35/35/35 36/36/36 37/37/37
f 38/38/38 37/37/37 36/36/36
f 37/37/37 38/38/38 39/39/39
f 40/40/40 39/39/39 38/38/38
f 41/41/41 42/42/42 43/43/43
f 43/43/43 44/44/44 41/41/41
f 28/28/28 41/41/41 44/44/44
f 9/9/9 14/14/14 45/45/45
f 45/45/45 36/36/36 9/9/9
f 36/36/36 45/45/45 38/38/38
f 44/44/44 29/29/29 28/28/28
f 14/14/14 15/15/15 46/46/46
f 46/46/46 45/45/45 14/14/14
f 45/45/45 46/46/46 47/47/47
f 47/47/47 38/38/38 45/45/45
f 38/38/38 47/47/47 40/40/40
f 46/46/46 15/15/15 16/16/16
f 31/31/31 48/48/48 49/49/49
f 50/50/50 49/49/49 51/51/51
f 51/51/51 52/52/52 50/50/50
f 53/53/53 50/50/50 52/52/52
f 52/52/52 54/54/54 53/53/53
f 25/25/25 53/53/53 54/54/54
f 25/25/25 42/42/42 41/41/41
f 54/54/54 16/16/16 25/25/25
f 16/16/16 54/54/54 46/46/46
f 46/46/46 54/54/54 52/52/52
f 52/52/52 47/47/47 46/46/46
f 47/47/47 52/52/52 51/51/51
f 51/51/51 40/40/40 47/47/47
f 49/49/49 27/27/27 31/31/31
f 27/27/27 49/49/49 50/50/50
f 55/55/55 18/18/18 12/12/12
f 12/12/12 56/56/56 55/55/55
f 57/57/57 58/58/58 59/59/59
f 59/59/59 60/60/60 57/57/57
f 60/60/60 59/59/59 61/61/61
f 61/61/61 62/62/62 60/60/60
f 62/62/62 61/61/61 34/34/34
f 34/34/34 35/35/35 62/62/62
f 33/33/33 35/35/35 34/34/34
f 57/57/57 60/60/60 63/63/63
f 63/63/63 60/60/60 62/62/62
f 62/62/62 37/37/37 63/63/63
f 37/37/37 62/62/62 35/35/35
f 55/55/55 56/56/56 64/64/64
f 42/42/42 25/25/25 17/17/17
f 17/17/17 18/18/18 42/42/42
f 43/43/43 42/42/42 18/18/18
f 18/18/18 55/55/55 43/43/43
f 43/43/43 55/55/55 65/65/65
f 64/64/64 65/65/65 55/55/55
f 65/65/65 64/64/64 20/20/20
f 39/39/39 63/63/63 37/37/37
f 50/50/50 28/28/28 27/27/27
f 20/20/20 19/19/19 65/65/65
f 66/66/66 65/65/65 19/19/19
f 65/65/65 66/66/66 43/43/43
f 43/43/43 66/66/66 67/67/67
f 67/67/67 44/44/44 43/43/43
f 44/44/44 67/67/67 68/68/68
f 68/68/68 29/29/29 44/44/44
f 29/29/29 68/68/68 69/69/69
f 69/69/69 30/30/30 29/29/29
f 32/32/32 30/30/30 69/69/69
f 69/69/69 70/70/70 32/32/32
f 70/70/70 69/69/69 71/71/71
f 71/71/71 69/69/69 68/68/68
f 68/68/68 72/72/72 71/71/71
f 72/72/72 68/68/68 67/67/67
f 67/67/67 73/73/73 72/72/72
f 73/73/73 67/67/67 66/66/66
f 66/66/66 74/74/74 73/73/73
f 19/19/19 74/74/74 66/66/66
f 71/71/71 75/75/75 76/76/76
f 75/75/75 71/71/71 72/72/72
f 72/72/72 77/77/77 75/75/75
f 77/77/77 72/72/72 73/73/73
f 78/78/59 79/79/58 76/76/76
f 23/23/23 80/80/26 81/81/78
f 81/81/78 80/80/26 82/82/34
f 82/82/34 83/83/79 81/81/78
f 83/83/79 82/82/34 84/84/61
f 84/84/61 77/77/77 83/83/79
f 77/77/77 84/84/61 78/78/59
f 78/78/59 75/75/75 77/77/77
f 76/76/76 75/75/75 78/78/59
f 73/73/73 83/83/79 77/77/77
f 83/83/79 73/73/73 74/74/74
f 74/74/74 81/81/78 83/83/79
f 24/24/24 81/81/78 74/74/74
f 81/81/78 24/24/24 23/23/23
f 28/28/28 50/50/50 53/53/53
f 74/74/74 19/19/19 24/24/24
f 53/53/53 41/41/41 28/28/28
f 41/41/41 53/53/53 25/25/25
f 85/85/80 31/31/31 32/32/32
f 32/32/32 86/86/81 85/85/80
f 87/87/82 85/85/80 86/86/81
f 86/86/81 88/88/83 87/87/82
f 89/89/84 87/87/82 88/88/83
f 88/88/83 90/90/85 89/89/84
f 87/87/82 89/89/84 91/91/86
f 87/87/82 91/91/86 92/92/87
f 92/92/87 93/93/88 87/87/82
f 85/85/80 87/87/82 93/93/88
f 93/93/88 94/94/89 85/85/80
f 93/93/88 92/92/87 95/95/90
f 95/95/90 96/96/91 93/93/88
f 94/94/89 93/93/88 96/96/91
f 97/97/92 98/98/93 99/99/94
f 100/100/95 99/99/94 98/98/93
f 98/98/93 96/96/91 100/100/95
f 101/101/96 100/100/95 96/96/91
f 85/85/80 94/94/89 48/48/48
f 96/96/91 95/95/90 101/101/96
f 96/96/91 98/98/93 94/94/89
f 48/48/48 94/94/89 98/98/93
f 98/98/93 97/97/92 48/48/48
f 49/49/49 48/48/48 97/97/92
f 97/97/92 51/51/51 49/49/49
f 48/48/48 31/31/31 85/85/80
f 40/40/40 51/51/51 97/97/92
f 97/97/92 102/102/97 40/40/40
f 99/99/94 102/102/97 97/97/92
f 103/103/98 58/58/58 57/57/57
f 57/57/57 104/104/99 103/103/98
f 105/105/100 106/106/101 103/103/98
f 103/103/98 104/104/99 105/105/100
f 105/105/100 104/104/99 107/107/102
f 107/107/102 104/104/99 57/57/57
f 57/57/57 108/108/103 107/107/102
f 63/63/63 108/108/103 57/57/57
f 108/108/103 63/63/63 39/39/39
f 107/107/102 108/108/103 109/109/104
f 39/39/39 109/109/104 108/108/103
f 110/110/105 106/106/101 105/105/100
f 105/105/100 111/111/106 110/110/105
f 111/111/106 105/105/100 112/112/107
f 107/107/102 112/112/107 105/105/100
f 112/112/107 107/107/102 113/113/108
f 109/109/104 113/113/108 107/107/102
f 112/112/107 114/114/109 111/111/106
f 86/86/81 32/32/32 70/70/70
f 102/102/97 99/99/94 113/113/108
f 113/113/108 109/109/104 102/102/97
f 40/40/40 102/102/97 109/109/104
f 109/109/104 39/39/39 40/40/40
f 71/71/71 115/115/110 70/70/70
f 116/116/111 70/70/70 115/115/110
f 70/70/70 116/116/111 86/86/81
f 88/88/83 86/86/81 116/116/111
f 90/90/85 88/88/83 117/117/112
f 116/116/111 117/117/112 88/88/83
f 117/117/112 116/116/111 118/118/113
f 115/115/110 118/118/113 116/116/111
f 118/118/113 115/115/110 76/76/76
f 76/76/76 115/115/110 71/71/71
f 117/117/112 119/119/114 90/90/85
f 118/118/113 120/120/115 117/117/112
f 119/119/114 117/117/112 120/120/115
f 120/120/115 121/121/116 119/119/114
f 76/76/76 122/122/117 118/118/113
f 120/120/115 118/118/113 122/122/117
f 76/76/76 79/79/58 123/123/98
f 123/123/98 122/122/117 76/76/76
f 124/124/118 122/122/117 123/123/98
f 122/122/117 124/124/118 120/120/115
f 124/124/118 125/125/119 120/120/115
f 120/120/115 125/125/119 121/121/116
f 125/125/119 124/124/118 126/126/120
f 123/123/98 127/127/101 124/124/118
f 124/124/118 127/127/101 128/128/105
f 128/128/105 126/126/120 124/124/118
f 114/114/109 112/112/107 129/129/121
f 113/113/108 129/129/121 112/112/107
f 129/129/121 130/130/122 114/114/109
f 100/100/95 101/101/96 130/130/122
f 130/130/122 129/129/121 100/100/95
f 99/99/94 100/100/95 129/129/121
f 129/129/121 113/113/108 99/99/94
