# Blender v2.83.2 OBJ File: ''
# www.blender.org
mtllib shoes_1.mtl
o DwarfFemale_HD_SDR
v 0.066386 -0.004833 -0.209233
v 0.062633 -0.000561 -0.233192
v 0.089358 -0.000561 -0.208597
v 0.076967 -0.004833 -0.141717
v 0.101275 -0.000561 -0.173919
v 0.107778 -0.000561 -0.119150
v 0.083919 -0.000561 -0.097347
v 0.093664 0.012205 -0.080517
v 0.083919 -0.000561 -0.097347
v 0.107778 -0.000561 -0.119150
v 0.117275 0.010819 -0.114558
v 0.101275 -0.000561 -0.173919
v 0.113869 0.011061 -0.177353
v 0.089358 -0.000561 -0.208597
v 0.100536 0.011264 -0.216472
v 0.096367 0.033717 -0.220028
v 0.112133 0.034519 -0.174614
v 0.114811 0.034461 -0.115378
v 0.090278 0.036983 -0.083886
v 0.062633 -0.000561 -0.233192
v 0.062400 0.011500 -0.252083
v 0.061553 0.028808 -0.247856
v 0.076058 0.049344 -0.220147
v 0.091517 0.059083 -0.173183
v 0.094564 0.061061 -0.116439
v -0.006878 -0.004833 -0.211267
v -0.012628 -0.000561 -0.249089
v 0.029336 -0.000561 -0.248592
v 0.049097 0.064111 -0.169333
v 0.047864 0.066303 -0.116083
v 0.048289 0.041914 -0.073922
v 0.026869 0.036542 -0.253081
v 0.040881 0.055955 -0.219858
v 0.050697 0.016078 -0.072356
v 0.054111 0.000511 -0.089369
v 0.035328 -0.004575 -0.210097
v -0.008631 0.072128 -0.218769
v 0.008606 0.083092 -0.166361
v -0.023647 0.050850 -0.252656
v 0.021808 0.012275 -0.259297
v 0.007836 0.020594 -0.071397
v 0.003211 -0.004833 -0.144894
v -0.041858 -0.004836 -0.146836
v 0.029336 -0.000561 -0.248592
v -0.012628 -0.000561 -0.249089
v -0.025264 0.013700 -0.258831
v -0.054814 0.014489 -0.257647
v 0.045764 -0.004122 -0.143025
v 0.004136 0.076539 -0.117892
v 0.004869 0.054708 -0.080506
v -0.054350 -0.000561 -0.245783
v -0.092422 -0.000561 -0.239425
v -0.096408 0.014917 -0.250961
v -0.147647 -0.000561 -0.228645
v 0.011708 -0.000561 -0.088986
v -0.039622 0.021778 -0.088964
v 0.054111 0.000511 -0.089369
v 0.011708 -0.000561 -0.088986
v -0.036758 -0.000561 -0.106436
v -0.079603 -0.000561 -0.128394
v -0.079725 0.019005 -0.111267
v -0.041664 0.066186 -0.096997
v -0.077608 0.066953 -0.095658
v -0.039622 0.021778 -0.088964
v -0.077608 0.066953 -0.095658
v -0.049661 -0.004833 -0.208653
v -0.081931 -0.004836 -0.148564
v -0.146942 -0.000561 -0.103717
v -0.112439 0.021708 -0.096606
v -0.146219 0.024414 -0.087389
v -0.204544 0.062544 -0.213817
v -0.201242 0.018605 -0.207256
v -0.225517 0.025008 -0.157128
v -0.181011 -0.002906 -0.114658
v -0.194136 0.026197 -0.103442
v -0.209200 0.002164 -0.155375
v -0.183953 -0.006247 -0.143272
v -0.148872 -0.004836 -0.147550
v -0.088594 -0.004836 -0.206275
v -0.054350 -0.000561 -0.245783
v -0.092422 -0.000561 -0.239425
v -0.147792 -0.004283 -0.193292
v -0.188433 -0.004589 -0.180447
v -0.148114 0.014869 -0.240983
v -0.195975 0.001144 -0.200211
v -0.043206 0.090617 -0.213733
v -0.026536 0.103639 -0.163461
v -0.149714 0.061522 -0.245319
v -0.071869 0.106572 -0.205581
v -0.088944 0.095675 -0.226528
v -0.093306 0.061533 -0.244428
v -0.149533 0.099381 -0.237600
v -0.195839 0.099183 -0.209261
v -0.220772 0.067930 -0.158569
v -0.071869 0.106572 -0.205581
v -0.189822 0.067531 -0.107453
v -0.212797 0.099997 -0.158478
v -0.180729 0.133005 -0.203299
v -0.144640 0.133169 -0.228307
v -0.088530 0.129704 -0.208613
v -0.183917 0.099919 -0.113186
v -0.141983 0.068017 -0.090656
v -0.201679 0.133368 -0.159173
v -0.173965 0.129700 -0.119324
v -0.145733 0.099364 -0.095886
v -0.108525 0.067086 -0.090558
v -0.137763 0.129686 -0.102431
v -0.114444 0.100467 -0.102719
v -0.038436 0.091569 -0.120061
v -0.137763 0.129686 -0.102431
v -0.114444 0.100467 -0.102719
v -0.065725 0.106697 -0.124442
v -0.053908 0.113592 -0.161678
v -0.083354 0.129883 -0.128622
v -0.062493 0.132365 -0.166929
v -0.054458 0.060558 -0.248439
vt 0.411600 0.012600
vt 0.388800 0.003900
vt 0.411700 0.003900
vt 0.455100 0.012500
vt 0.434600 0.003900
vt 0.457500 0.003900
vt 0.482900 0.003900
vt 0.268200 0.010800
vt 0.265500 0.003900
vt 0.295800 0.003900
vt 0.295100 0.007800
vt 0.313100 0.003900
vt 0.313100 0.008500
vt 0.329200 0.003900
vt 0.329200 0.008700
vt 0.329200 0.015600
vt 0.313100 0.015600
vt 0.294600 0.015600
vt 0.285300 0.019900
vt 0.340100 0.003000
vt 0.340400 0.010400
vt 0.341900 0.019100
vt 0.329200 0.022200
vt 0.313100 0.023000
vt 0.294400 0.021200
vt 0.414400 0.032900
vt 0.382700 0.036200
vt 0.381200 0.027000
vt 0.311700 0.039100
vt 0.292400 0.039300
vt 0.277900 0.039300
vt 0.343900 0.035300
vt 0.329400 0.038000
vt 0.265700 0.024300
vt 0.257200 0.012300
vt 0.414400 0.026700
vt 0.330600 0.063100
vt 0.310900 0.061900
vt 0.347200 0.060900
vt 0.364300 0.025900
vt 0.261600 0.038500
vt 0.455100 0.032800
vt 0.453200 0.038500
vt 0.369400 0.015800
vt 0.375200 0.029200
vt 0.369900 0.036300
vt 0.372400 0.048000
vt 0.455100 0.022500
vt 0.292500 0.061600
vt 0.273600 0.062200
vt 0.378100 0.038600
vt 0.381500 0.048900
vt 0.376300 0.057300
vt 0.384900 0.058600
vt 0.251696 0.019700
vt 0.251696 0.055700
vt 0.494100 0.020300
vt 0.497339 0.026800
vt 0.492400 0.036400
vt 0.486600 0.044900
vt 0.492800 0.068500
vt 0.266300 0.078800
vt 0.251696 0.092500
vt 0.497339 0.064000
vt 0.497339 0.092400
vt 0.414900 0.041700
vt 0.453200 0.047600
vt 0.476400 0.058800
vt 0.489400 0.071900
vt 0.483100 0.077300
vt 0.403500 0.100800
vt 0.403700 0.084500
vt 0.436000 0.091200
vt 0.465400 0.066700
vt 0.470000 0.082000
vt 0.435900 0.075500
vt 0.452500 0.063500
vt 0.453200 0.058400
vt 0.414900 0.047600
vt 0.383400 0.043500
vt 0.383700 0.047600
vt 0.414400 0.056000
vt 0.418000 0.064400
vt 0.384700 0.069600
vt 0.404400 0.068200
vt 0.330300 0.091500
vt 0.310900 0.092000
vt 0.376500 0.098100
vt 0.330900 0.111700
vt 0.344500 0.111200
vt 0.359000 0.090200
vt 0.371100 0.112000
vt 0.405700 0.114200
vt 0.436500 0.104700
vt 0.330900 0.111700
vt 0.471300 0.099400
vt 0.435500 0.117300
vt 0.408000 0.125000
vt 0.370457 0.124994
vt 0.331006 0.124994
vt 0.471500 0.112300
vt 0.489700 0.095600
vt 0.435385 0.124994
vt 0.470900 0.124994
vt 0.493400 0.109100
vt 0.493600 0.094100
vt 0.497339 0.124994
vt 0.497339 0.108600
vt 0.292300 0.090700
vt 0.251696 0.125000
vt 0.251696 0.110900
vt 0.291000 0.111300
vt 0.310300 0.111800
vt 0.289800 0.125000
vt 0.309600 0.125000
vt 0.353500 0.077300
vn 0.0881 -0.9912 -0.0993
vn 0.2425 -0.9026 -0.3557
vn 0.3989 -0.8839 -0.2441
vn 0.0547 -0.9981 0.0283
vn 0.4301 -0.8983 -0.0896
vn 0.4967 -0.8581 0.1303
vn 0.1430 -0.9266 0.3479
vn 0.4940 -0.3514 0.7953
vn 0.9165 -0.2916 0.2740
vn 0.4300 -0.8983 -0.0896
vn 0.9182 -0.3510 -0.1838
vn 0.7920 -0.3591 -0.4938
vn 0.7426 0.4209 -0.5210
vn 0.9030 0.3886 -0.1830
vn 0.9009 0.3471 0.2606
vn 0.4761 0.4646 0.7466
vn 0.4131 -0.3037 -0.8585
vn 0.3692 0.4342 -0.8217
vn 0.3711 0.8139 -0.4470
vn 0.4747 0.8613 -0.1814
vn 0.4648 0.8474 0.2565
vn 0.0012 -0.9984 -0.0568
vn -0.0184 -0.8614 -0.5076
vn 0.0773 -0.8643 -0.4969
vn 0.2637 0.9565 -0.1251
vn 0.1989 0.9385 0.2822
vn 0.1484 0.5047 0.8505
vn 0.1786 0.5257 -0.8317
vn 0.2289 0.8871 -0.4007
vn 0.0715 -0.3735 0.9249
vn 0.0451 -0.8966 0.4404
vn 0.0108 -0.9981 -0.0600
vn 0.3169 0.8275 -0.4634
vn 0.3918 0.9171 -0.0734
vn 0.1007 0.4982 -0.8612
vn 0.0805 -0.2176 -0.9727
vn -0.1809 -0.2341 0.9552
vn 0.0068 -0.9992 0.0395
vn -0.0164 -0.9981 0.0594
vn 0.0773 -0.8643 -0.4970
vn -0.0333 -0.2284 -0.9730
vn -0.1074 -0.2291 -0.9675
vn -0.0039 -0.9989 0.0457
vn 0.2064 0.9067 0.3677
vn -0.0611 0.5878 0.8067
vn -0.0596 -0.8679 -0.4932
vn -0.0903 -0.8682 -0.4880
vn -0.1311 -0.2748 -0.9525
vn -0.2006 -0.8472 -0.4919
vn -0.0700 -0.8722 0.4841
vn -0.3224 -0.2874 0.9019
vn -0.0699 -0.8722 0.4841
vn -0.2009 -0.8628 0.4639
vn -0.0049 -0.9060 0.4233
vn -0.0429 -0.5250 0.8500
vn -0.0003 0.5025 0.8646
vn 0.1076 0.2133 0.9710
vn -0.3224 -0.2875 0.9019
vn -0.0037 -0.9984 -0.0565
vn 0.0107 -0.9958 0.0907
vn 0.0075 -0.8186 0.5743
vn 0.2460 -0.3882 0.8881
vn -0.0384 -0.2231 0.9740
vn -0.7680 0.0745 -0.6362
vn -0.7282 -0.2947 -0.6187
vn -0.9698 -0.2281 0.0865
vn -0.3449 -0.8040 0.4844
vn -0.6280 -0.1804 0.7570
vn -0.6593 -0.7447 0.1038
vn -0.1631 -0.9843 0.0681
vn 0.0218 -0.9989 0.0418
vn -0.0144 -0.9978 -0.0650
vn -0.0904 -0.8681 -0.4880
vn -0.0137 -0.9978 -0.0645
vn -0.2121 -0.9727 -0.0943
vn -0.3305 -0.3596 -0.8726
vn -0.5420 -0.7285 -0.4190
vn 0.3049 0.7903 -0.5314
vn 0.4402 0.8979 0.0083
vn -0.2773 0.0777 -0.9576
vn 0.5471 0.6266 -0.5550
vn 0.3091 0.4535 -0.8360
vn 0.0451 0.3217 -0.9458
vn -0.2166 0.2713 -0.9378
vn -0.7396 0.3246 -0.5896
vn -0.9775 0.1815 0.1078
vn -0.0578 -0.0332 -0.1357
vn -0.6173 0.1870 0.7642
vn -0.9472 0.3022 0.1074
vn -0.7590 -0.0408 -0.6498
vn -0.1066 0.0608 -0.9924
vn 0.4932 0.3938 -0.7757
vn -0.6201 0.2845 0.7311
vn -0.1355 0.0936 0.9864
vn -0.9962 0.0050 0.0870
vn -0.6157 -0.1574 0.7721
vn -0.1656 0.2179 0.9618
vn 0.1065 0.0907 0.9902
vn -0.0151 -0.0285 0.9995
vn 0.2634 0.3299 0.9065
vn 0.2807 0.7755 0.5655
vn 0.4426 0.6250 0.6431
vn 0.6425 0.7661 0.0155
vn 0.6624 0.2258 0.7143
vn 0.8355 0.5477 0.0448
vn -0.0254 0.5151 -0.8567
usemtl Default_OBJ
s 1
f 1/1/1 2/2/2 3/3/3
f 4/4/4 1/1/1 3/3/3
f 4/4/4 3/3/3 5/5/5
f 4/4/4 5/5/5 6/6/6
f 6/6/6 7/7/7 4/4/4
f 8/8/8 9/9/7 10/10/6
f 10/10/6 11/11/9 8/8/8
f 11/11/9 10/10/6 12/12/10
f 12/12/10 13/13/11 11/11/9
f 13/13/11 12/12/10 14/14/3
f 14/14/3 15/15/12 13/13/11
f 15/15/12 16/16/13 17/17/14
f 17/17/14 13/13/11 15/15/12
f 13/13/11 17/17/14 18/18/15
f 18/18/15 11/11/9 13/13/11
f 11/11/9 18/18/15 19/19/16
f 19/19/16 8/8/8 11/11/9
f 15/15/12 14/14/3 20/20/2
f 20/20/2 21/21/17 15/15/12
f 16/16/13 15/15/12 21/21/17
f 21/21/17 22/22/18 16/16/13
f 16/16/13 22/22/18 23/23/19
f 23/23/19 24/24/20 17/17/14
f 25/25/21 19/19/16 18/18/15
f 24/24/20 25/25/21 18/18/15
f 18/18/15 17/17/14 24/24/20
f 17/17/14 16/16/13 23/23/19
f 26/26/22 27/27/23 28/28/24
f 29/29/25 24/24/20 23/23/19
f 25/25/21 24/24/20 29/29/25
f 29/29/25 30/30/26 25/25/21
f 19/19/16 25/25/21 30/30/26
f 30/30/26 31/31/27 19/19/16
f 32/32/28 33/33/29 23/23/19
f 23/23/19 22/22/18 32/32/28
f 34/34/30 35/35/31 9/9/7
f 28/28/24 36/36/32 26/26/22
f 36/36/32 28/28/24 2/2/2
f 33/33/29 37/37/33 38/38/34
f 39/39/35 37/37/33 33/33/29
f 33/33/29 32/32/28 39/39/35
f 39/39/35 32/32/28 40/40/36
f 40/40/36 32/32/28 22/22/18
f 22/22/18 21/21/17 40/40/36
f 9/9/7 8/8/8 34/34/30
f 35/35/31 34/34/30 41/41/37
f 2/2/2 1/1/1 36/36/32
f 26/26/22 42/42/38 43/43/39
f 42/42/38 26/26/22 36/36/32
f 40/40/36 44/44/40 45/45/23
f 45/45/23 46/46/41 40/40/36
f 40/40/36 46/46/41 39/39/35
f 39/39/35 46/46/41 47/47/42
f 36/36/32 48/48/43 42/42/38
f 48/48/43 36/36/32 1/1/1
f 30/30/26 29/29/25 38/38/34
f 30/30/26 49/49/44 50/50/45
f 38/38/34 49/49/44 30/30/26
f 1/1/1 4/4/4 48/48/43
f 47/47/42 46/46/41 45/45/23
f 45/45/23 51/51/46 47/47/42
f 47/47/42 51/51/46 52/52/47
f 52/52/47 53/53/48 47/47/42
f 53/53/48 52/52/47 54/54/49
f 44/44/40 40/40/36 21/21/17
f 21/21/17 20/20/2 44/44/40
f 41/41/37 34/34/30 31/31/27
f 31/31/27 34/34/30 8/8/8
f 38/38/34 29/29/25 33/33/29
f 8/8/8 19/19/16 31/31/27
f 41/41/37 55/55/50 35/35/31
f 50/50/45 31/31/27 30/30/26
f 31/31/27 50/50/45 41/41/37
f 56/56/51 41/41/37 50/50/45
f 56/56/51 55/55/50 41/41/37
f 23/23/19 33/33/29 29/29/25
f 57/57/31 48/48/43 4/4/4
f 42/42/38 48/48/43 57/57/31
f 57/57/31 58/58/52 42/42/38
f 43/43/39 42/42/38 58/58/52
f 58/58/52 59/59/53 43/43/39
f 43/43/39 59/59/53 60/60/54
f 61/61/55 60/60/54 59/59/53
f 62/62/56 50/50/45 49/49/44
f 50/50/45 62/62/56 56/56/51
f 56/56/51 62/62/56 63/63/57
f 4/4/4 7/7/7 57/57/31
f 64/64/58 59/59/53 58/58/52
f 59/59/53 64/64/58 61/61/55
f 65/65/57 61/61/55 64/64/58
f 27/27/23 26/26/22 66/66/59
f 43/43/39 66/66/59 26/26/22
f 66/66/59 43/43/39 67/67/60
f 60/60/54 67/67/60 43/43/39
f 67/67/60 60/60/54 68/68/61
f 69/69/62 68/68/61 60/60/54
f 69/69/62 70/70/63 68/68/61
f 60/60/54 61/61/55 69/69/62
f 69/69/62 61/61/55 65/65/57
f 71/71/64 72/72/65 73/73/66
f 74/74/67 68/68/61 70/70/63
f 70/70/63 75/75/68 74/74/67
f 75/75/68 73/73/66 76/76/69
f 76/76/69 74/74/67 75/75/68
f 74/74/67 76/76/69 77/77/70
f 68/68/61 74/74/67 77/77/70
f 77/77/70 78/78/71 68/68/61
f 68/68/61 78/78/71 67/67/60
f 79/79/72 67/67/60 78/78/71
f 67/67/60 79/79/72 66/66/59
f 80/80/46 66/66/59 79/79/72
f 66/66/59 80/80/46 27/27/23
f 79/79/72 81/81/73 80/80/46
f 81/81/73 79/79/72 82/82/74
f 78/78/71 82/82/74 79/79/72
f 82/82/74 78/78/71 77/77/70
f 76/76/69 83/83/75 77/77/70
f 77/77/70 83/83/75 82/82/74
f 54/54/49 82/82/74 83/83/75
f 82/82/74 54/54/49 81/81/73
f 84/84/76 72/72/65 71/71/64
f 54/54/49 84/84/76 53/53/48
f 84/84/76 54/54/49 85/85/77
f 83/83/75 85/85/77 54/54/49
f 76/76/69 85/85/77 83/83/75
f 85/85/77 76/76/69 73/73/66
f 73/73/66 72/72/65 85/85/77
f 85/85/77 72/72/65 84/84/76
f 86/86/78 87/87/79 38/38/34
f 71/71/64 88/88/80 84/84/76
f 53/53/48 84/84/76 88/88/80
f 87/87/79 86/86/78 89/89/81
f 86/86/78 90/90/82 89/89/81
f 91/91/83 90/90/82 86/86/78
f 92/92/84 90/90/82 91/91/83
f 91/91/83 88/88/80 92/92/84
f 93/93/85 92/92/84 88/88/80
f 88/88/80 71/71/64 93/93/85
f 93/93/85 71/71/64 94/94/86
f 73/73/66 94/94/86 71/71/64
f 94/94/86 73/73/66 75/75/68
f 89/89/81 90/90/82 95/95/87
f 75/75/68 96/96/88 94/94/86
f 97/97/89 94/94/86 96/96/88
f 94/94/86 97/97/89 93/93/85
f 98/98/90 93/93/85 97/97/89
f 92/92/84 93/93/85 98/98/90
f 98/98/90 99/99/91 92/92/84
f 90/90/82 92/92/84 99/99/91
f 99/99/91 100/100/92 90/90/82
f 90/90/82 100/100/92 95/95/87
f 100/100/92 89/89/81 95/95/87
f 96/96/88 101/101/93 97/97/89
f 101/101/93 96/96/88 102/102/94
f 97/97/89 103/103/95 98/98/90
f 104/104/96 103/103/95 97/97/89
f 97/97/89 101/101/93 104/104/96
f 104/104/96 101/101/93 105/105/97
f 102/102/94 105/105/97 101/101/93
f 105/105/97 102/102/94 106/106/98
f 69/69/62 106/106/98 102/102/94
f 105/105/97 107/107/99 104/104/96
f 107/107/99 105/105/97 108/108/100
f 106/106/98 108/108/100 105/105/97
f 108/108/100 106/106/98 65/65/57
f 65/65/57 106/106/98 69/69/62
f 102/102/94 96/96/88 75/75/68
f 75/75/68 70/70/63 102/102/94
f 102/102/94 70/70/63 69/69/62
f 109/109/101 49/49/44 38/38/34
f 38/38/34 87/87/79 109/109/101
f 110/110/99 111/111/100 112/112/102
f 63/63/57 62/62/56 109/109/101
f 112/112/102 111/111/100 63/63/57
f 109/109/101 112/112/102 63/63/57
f 113/113/103 112/112/102 109/109/101
f 109/109/101 87/87/79 113/113/103
f 89/89/81 113/113/103 87/87/79
f 112/112/102 114/114/104 110/110/99
f 115/115/105 114/114/104 112/112/102
f 112/112/102 113/113/103 115/115/105
f 100/100/92 115/115/105 113/113/103
f 100/100/92 113/113/103 89/89/81
f 88/88/80 91/91/83 53/53/48
f 53/53/48 91/91/83 116/116/106
f 116/116/106 47/47/42 53/53/48
f 49/49/44 109/109/101 62/62/56
f 47/47/42 116/116/106 39/39/35
f 86/86/78 116/116/106 91/91/83
f 39/39/35 116/116/106 86/86/78
f 86/86/78 37/37/33 39/39/35
f 38/38/34 37/37/33 86/86/78
