# Blender v2.83.2 OBJ File: ''
# www.blender.org
mtllib shoes.mtl
o DwarfFemale_HD_SDR
v -0.088594 -0.004836 0.206278
v -0.049661 -0.004833 0.208656
v -0.054350 -0.000561 0.245783
v -0.081931 -0.004836 0.148564
v -0.148872 -0.004836 0.147550
v -0.146942 -0.000561 0.103717
v -0.183953 -0.006247 0.143272
v -0.077608 0.066953 0.095661
v -0.039622 0.021778 0.088964
v -0.079725 0.019006 0.111267
v -0.112439 0.021708 0.096606
v -0.181011 -0.002906 0.114658
v -0.209200 0.002164 0.155375
v -0.194136 0.026197 0.103445
v -0.225517 0.025008 0.157128
v -0.146219 0.024414 0.087389
v -0.147792 -0.004283 0.193292
v -0.188433 -0.004589 0.180450
v -0.195975 0.001144 0.200211
v -0.201242 0.018606 0.207256
v -0.204544 0.062544 0.213817
v -0.148114 0.014869 0.240986
v -0.147647 -0.000561 0.228644
v -0.092422 -0.000561 0.239425
v -0.096408 0.014917 0.250961
v -0.092422 -0.000561 0.239425
v -0.054814 0.014489 0.257647
v -0.054350 -0.000561 0.245783
v -0.039622 0.021778 0.088964
v -0.077608 0.066953 0.095661
v -0.041664 0.066186 0.096997
v -0.036758 -0.000561 0.106436
v -0.079603 -0.000561 0.128394
v -0.041858 -0.004836 0.146836
v -0.012628 -0.000561 0.249092
v -0.006878 -0.004833 0.211267
v 0.029339 -0.000561 0.248592
v 0.076967 -0.004833 0.141717
v 0.101275 -0.000561 0.173919
v 0.089358 -0.000561 0.208597
v 0.107778 -0.000561 0.119150
v 0.083919 -0.000561 0.097347
v 0.054111 0.000511 0.089370
v 0.066386 -0.004833 0.209233
v 0.045764 -0.004122 0.143028
v 0.062633 -0.000561 0.233192
v 0.035328 -0.004575 0.210097
v 0.003211 -0.004833 0.144894
v 0.011708 -0.000561 0.088986
v -0.012628 -0.000561 0.249092
v -0.025264 0.013700 0.258830
v -0.023647 0.050850 0.252656
v 0.021808 0.012275 0.259297
v 0.029339 -0.000561 0.248592
v 0.062400 0.011500 0.252083
v 0.062633 -0.000561 0.233192
v 0.100536 0.011264 0.216472
v 0.089358 -0.000561 0.208597
v 0.113869 0.011061 0.177353
v 0.061553 0.028808 0.247855
v 0.026869 0.036542 0.253083
v 0.076058 0.049345 0.220147
v 0.096367 0.033717 0.220028
v 0.112133 0.034520 0.174614
v 0.091517 0.059086 0.173186
v 0.114811 0.034461 0.115378
v 0.094564 0.061061 0.116439
v 0.049097 0.064111 0.169333
v 0.040880 0.055956 0.219858
v 0.047864 0.066303 0.116083
v 0.090278 0.036983 0.083886
v 0.117275 0.010819 0.114558
v 0.101275 -0.000561 0.173919
v 0.107778 -0.000561 0.119150
v 0.093664 0.012206 0.080517
v 0.083919 -0.000561 0.097347
v 0.048289 0.041914 0.073922
v 0.050697 0.016078 0.072356
v 0.054111 0.000511 0.089370
v 0.007836 0.020595 0.071397
v 0.004869 0.054708 0.080506
v 0.004136 0.076539 0.117892
v 0.008606 0.083092 0.166361
v 0.011708 -0.000561 0.088986
v -0.008631 0.072128 0.218772
v -0.054458 0.060558 0.248439
v -0.141983 0.068017 0.090656
v -0.173944 0.129722 0.119113
v -0.137739 0.129709 0.102252
v -0.145733 0.099364 0.095886
v -0.114444 0.100467 0.102722
v -0.108525 0.067086 0.090558
v -0.183917 0.099920 0.113186
v -0.212797 0.099997 0.158478
v -0.201670 0.133381 0.158926
v -0.180736 0.133001 0.203084
v -0.043206 0.090617 0.213733
v -0.093306 0.061533 0.244428
v -0.149714 0.061522 0.245319
v -0.071869 0.106572 0.205581
v -0.026536 0.103639 0.163461
v -0.088944 0.095675 0.226528
v -0.149533 0.099381 0.237603
v -0.195839 0.099183 0.209261
v -0.220772 0.067931 0.158569
v -0.189822 0.067531 0.107453
v -0.144653 0.133156 0.228129
v -0.088536 0.129695 0.208478
v -0.071869 0.106572 0.205581
v -0.137739 0.129709 0.102252
v -0.083341 0.129892 0.128488
v -0.065725 0.106697 0.124442
v -0.062489 0.132364 0.166795
v -0.053908 0.113592 0.161678
v -0.114444 0.100467 0.102722
v -0.038433 0.091569 0.120061
vt 0.414900 0.047600
vt 0.414900 0.041700
vt 0.383400 0.043500
vt 0.453200 0.047600
vt 0.453200 0.058400
vt 0.476400 0.058800
vt 0.452500 0.063500
vt 0.497339 0.092400
vt 0.497339 0.064000
vt 0.492800 0.068500
vt 0.489400 0.071900
vt 0.465400 0.066700
vt 0.435900 0.075500
vt 0.470000 0.082000
vt 0.436000 0.091200
vt 0.483100 0.077300
vt 0.414400 0.056000
vt 0.418000 0.064400
vt 0.404400 0.068200
vt 0.403700 0.084500
vt 0.403500 0.100800
vt 0.384700 0.069600
vt 0.384900 0.058600
vt 0.383700 0.047600
vt 0.376300 0.057300
vt 0.381500 0.048900
vt 0.372400 0.048000
vt 0.378100 0.038600
vt 0.251696 0.055700
vt 0.251696 0.092500
vt 0.266300 0.078800
vt 0.492400 0.036400
vt 0.486600 0.044900
vt 0.453200 0.038500
vt 0.382700 0.036200
vt 0.414400 0.032900
vt 0.381200 0.027000
vt 0.455100 0.012500
vt 0.434600 0.003900
vt 0.411700 0.003900
vt 0.457500 0.003900
vt 0.482900 0.003900
vt 0.494100 0.020300
vt 0.411600 0.012600
vt 0.455100 0.022500
vt 0.388800 0.003900
vt 0.414400 0.026700
vt 0.455100 0.032800
vt 0.497339 0.026800
vt 0.375200 0.029200
vt 0.369900 0.036300
vt 0.347200 0.060900
vt 0.364300 0.025900
vt 0.369400 0.015800
vt 0.340400 0.010400
vt 0.340100 0.003000
vt 0.329200 0.008700
vt 0.329200 0.003900
vt 0.313100 0.008500
vt 0.341900 0.019100
vt 0.343900 0.035300
vt 0.329200 0.022200
vt 0.329200 0.015600
vt 0.313100 0.015600
vt 0.313100 0.023000
vt 0.294600 0.015600
vt 0.294400 0.021200
vt 0.311700 0.039100
vt 0.329400 0.038000
vt 0.292400 0.039300
vt 0.285300 0.019900
vt 0.295100 0.007800
vt 0.313100 0.003900
vt 0.295800 0.003900
vt 0.268200 0.010800
vt 0.265500 0.003900
vt 0.277900 0.039300
vt 0.265700 0.024300
vt 0.257200 0.012300
vt 0.261600 0.038500
vt 0.273600 0.062200
vt 0.292500 0.061600
vt 0.310900 0.061900
vt 0.251696 0.019700
vt 0.330600 0.063100
vt 0.353500 0.077300
vt 0.489700 0.095600
vt 0.470900 0.124994
vt 0.497339 0.124994
vt 0.493400 0.109100
vt 0.497339 0.108600
vt 0.493600 0.094100
vt 0.471500 0.112300
vt 0.435500 0.117300
vt 0.435385 0.124994
vt 0.408000 0.125000
vt 0.330300 0.091500
vt 0.359000 0.090200
vt 0.376500 0.098100
vt 0.330900 0.111700
vt 0.310900 0.092000
vt 0.344500 0.111200
vt 0.371100 0.112000
vt 0.405700 0.114200
vt 0.436500 0.104700
vt 0.471300 0.099400
vt 0.370457 0.124994
vt 0.331006 0.124994
vt 0.330900 0.111700
vt 0.251696 0.125000
vt 0.289800 0.125000
vt 0.291000 0.111300
vt 0.309600 0.125000
vt 0.310300 0.111800
vt 0.251696 0.110900
vt 0.292300 0.090700
vn -0.0144 -0.9978 0.0650
vn -0.0037 -0.9984 0.0565
vn -0.0596 -0.8679 0.4932
vn 0.0107 -0.9958 -0.0907
vn 0.0218 -0.9989 -0.0418
vn 0.0075 -0.8186 -0.5743
vn -0.1631 -0.9843 -0.0681
vn 0.1076 0.2133 -0.9710
vn -0.3224 -0.2874 -0.9019
vn -0.0429 -0.5250 -0.8500
vn 0.2460 -0.3882 -0.8881
vn -0.3449 -0.8040 -0.4844
vn -0.6593 -0.7447 -0.1038
vn -0.6280 -0.1804 -0.7570
vn -0.9698 -0.2281 -0.0865
vn -0.0384 -0.2231 -0.9740
vn -0.0137 -0.9978 0.0645
vn -0.2121 -0.9727 0.0944
vn -0.5420 -0.7285 0.4190
vn -0.7283 -0.2947 0.6187
vn -0.7680 0.0745 0.6361
vn -0.3304 -0.3596 0.8726
vn -0.2006 -0.8472 0.4919
vn -0.0904 -0.8681 0.4880
vn -0.1311 -0.2748 0.9525
vn -0.0904 -0.8682 0.4880
vn -0.1074 -0.2291 0.9675
vn -0.0004 0.5025 -0.8646
vn -0.2009 -0.8628 -0.4639
vn -0.0049 -0.9060 -0.4233
vn -0.0164 -0.9981 -0.0594
vn -0.0184 -0.8614 0.5077
vn 0.0012 -0.9984 0.0568
vn 0.0773 -0.8643 0.4970
vn 0.0547 -0.9981 -0.0283
vn 0.4301 -0.8983 0.0896
vn 0.3989 -0.8839 0.2441
vn 0.4967 -0.8581 -0.1303
vn 0.1430 -0.9266 -0.3479
vn 0.0451 -0.8966 -0.4404
vn 0.0881 -0.9912 0.0993
vn -0.0039 -0.9989 -0.0457
vn 0.2425 -0.9026 0.3557
vn 0.0108 -0.9981 0.0600
vn 0.0068 -0.9992 -0.0395
vn -0.0699 -0.8722 -0.4841
vn -0.0184 -0.8614 0.5076
vn -0.0333 -0.2284 0.9730
vn 0.1007 0.4982 0.8612
vn 0.0805 -0.2176 0.9727
vn 0.0773 -0.8643 0.4969
vn 0.4131 -0.3037 0.8585
vn 0.7920 -0.3591 0.4938
vn 0.9182 -0.3510 0.1838
vn 0.3692 0.4342 0.8217
vn 0.1785 0.5256 0.8318
vn 0.3711 0.8139 0.4470
vn 0.7426 0.4209 0.5210
vn 0.9030 0.3886 0.1830
vn 0.4746 0.8613 0.1814
vn 0.9009 0.3471 -0.2606
vn 0.4648 0.8474 -0.2565
vn 0.2637 0.9565 0.1251
vn 0.2289 0.8871 0.4007
vn 0.1989 0.9385 -0.2822
vn 0.4761 0.4646 -0.7466
vn 0.9165 -0.2916 -0.2740
vn 0.4300 -0.8983 0.0896
vn 0.4940 -0.3514 -0.7953
vn 0.1484 0.5047 -0.8505
vn 0.0715 -0.3735 -0.9249
vn -0.1809 -0.2341 -0.9552
vn -0.0611 0.5878 -0.8067
vn 0.2064 0.9067 -0.3677
vn 0.3918 0.9171 0.0734
vn -0.0700 -0.8722 -0.4841
vn 0.3169 0.8275 0.4634
vn -0.0254 0.5151 0.8567
vn -0.1355 0.0936 -0.9864
vn -0.6152 -0.1584 -0.7723
vn -0.0143 -0.0305 -0.9994
vn -0.1657 0.2153 -0.9624
vn 0.2639 0.3274 -0.9073
vn 0.1066 0.0908 -0.9902
vn -0.6208 0.2825 -0.7313
vn -0.9473 0.3020 -0.1066
vn -0.9961 0.0048 -0.0883
vn -0.7595 -0.0398 0.6492
vn 0.3049 0.7903 0.5314
vn 0.0452 0.3216 0.9458
vn -0.2773 0.0777 0.9576
vn 0.5458 0.6279 0.5548
vn 0.4402 0.8979 -0.0083
vn 0.3085 0.4547 0.8355
vn -0.2164 0.2735 0.9372
vn -0.7390 0.3259 0.5896
vn -0.9775 0.1815 -0.1078
vn -0.6173 0.1870 -0.7642
vn -0.1072 0.0625 0.9923
vn 0.4924 0.3955 0.7753
vn 0.6630 0.2240 -0.7143
vn 0.4435 0.6239 -0.6434
vn 0.8357 0.5474 -0.0453
vn 0.6427 0.7660 -0.0147
vn 0.2640 0.3274 -0.9073
vn 0.2807 0.7755 -0.5655
usemtl Default_OBJ
s 1
f 1/1/1 2/2/2 3/3/3
f 2/2/2 1/1/1 4/4/4
f 5/5/5 4/4/4 1/1/1
f 4/4/4 5/5/5 6/6/6
f 6/6/6 5/5/5 7/7/7
f 8/8/8 9/9/9 10/10/10
f 8/8/8 10/10/10 11/11/11
f 7/7/7 12/12/12 6/6/6
f 12/12/12 7/7/7 13/13/13
f 14/14/14 12/12/12 13/13/13
f 13/13/13 15/15/15 14/14/14
f 16/16/16 6/6/6 12/12/12
f 12/12/12 14/14/14 16/16/16
f 1/1/1 17/17/17 5/5/5
f 7/7/7 5/5/5 17/17/17
f 17/17/17 18/18/18 7/7/7
f 13/13/13 7/7/7 18/18/18
f 13/13/13 18/18/18 19/19/19
f 15/15/15 13/13/13 19/19/19
f 19/19/19 20/20/20 15/15/15
f 15/15/15 20/20/20 21/21/21
f 21/21/21 20/20/20 22/22/22
f 23/23/23 19/19/19 18/18/18
f 18/18/18 17/17/17 23/23/23
f 24/24/24 23/23/23 17/17/17
f 17/17/17 1/1/1 24/24/24
f 3/3/3 24/24/24 1/1/1
f 22/22/22 20/20/20 19/19/19
f 19/19/19 23/23/23 22/22/22
f 25/25/25 22/22/22 23/23/23
f 23/23/23 26/26/26 25/25/25
f 27/27/27 25/25/25 26/26/26
f 26/26/26 28/28/3 27/27/27
f 29/29/9 30/30/8 31/31/28
f 11/11/11 6/6/6 16/16/16
f 10/10/10 9/9/9 32/32/29
f 33/33/30 32/32/29 34/34/31
f 32/32/29 33/33/30 10/10/10
f 33/33/30 11/11/11 10/10/10
f 11/11/11 33/33/30 6/6/6
f 6/6/6 33/33/30 4/4/4
f 34/34/31 4/4/4 33/33/30
f 4/4/4 34/34/31 2/2/2
f 35/35/32 3/3/3 2/2/2
f 36/36/33 2/2/2 34/34/31
f 2/2/2 36/36/33 35/35/32
f 37/37/34 35/35/32 36/36/33
f 38/38/35 39/39/36 40/40/37
f 38/38/35 41/41/38 39/39/36
f 41/41/38 38/38/35 42/42/39
f 43/43/40 42/42/39 38/38/35
f 38/38/35 40/40/37 44/44/41
f 45/45/42 38/38/35 44/44/41
f 38/38/35 45/45/42 43/43/40
f 44/44/41 40/40/37 46/46/43
f 47/47/44 44/44/41 46/46/43
f 44/44/41 47/47/44 45/45/42
f 48/48/45 45/45/42 47/47/44
f 43/43/40 45/45/42 48/48/45
f 48/48/45 49/49/46 43/43/40
f 46/46/43 37/37/34 47/47/44
f 36/36/33 47/47/44 37/37/34
f 47/47/44 36/36/33 48/48/45
f 34/34/31 48/48/45 36/36/33
f 49/49/46 48/48/45 34/34/31
f 34/34/31 32/32/29 49/49/46
f 27/27/27 28/28/3 50/50/47
f 27/27/27 51/51/48 52/52/49
f 50/50/47 51/51/48 27/27/27
f 53/53/50 51/51/48 50/50/47
f 50/50/47 54/54/51 53/53/50
f 55/55/52 53/53/50 54/54/51
f 54/54/51 56/56/43 55/55/52
f 57/57/53 55/55/52 56/56/43
f 56/56/43 58/58/37 57/57/53
f 59/59/54 57/57/53 58/58/37
f 53/53/50 55/55/52 60/60/55
f 60/60/55 61/61/56 53/53/50
f 61/61/56 60/60/55 62/62/57
f 63/63/58 62/62/57 60/60/55
f 63/63/58 60/60/55 55/55/52
f 55/55/52 57/57/53 63/63/58
f 64/64/59 63/63/58 57/57/53
f 62/62/57 63/63/58 64/64/59
f 64/64/59 65/65/60 62/62/57
f 65/65/60 64/64/59 66/66/61
f 66/66/61 64/64/59 59/59/54
f 57/57/53 59/59/54 64/64/59
f 66/66/61 67/67/62 65/65/60
f 68/68/63 65/65/60 67/67/62
f 62/62/57 65/65/60 68/68/63
f 68/68/63 69/69/64 62/62/57
f 62/62/57 69/69/64 61/61/56
f 52/52/49 61/61/56 69/69/64
f 52/52/49 53/53/50 61/61/56
f 53/53/50 52/52/49 51/51/48
f 67/67/62 70/70/65 68/68/63
f 70/70/65 67/67/62 71/71/66
f 67/67/62 66/66/61 71/71/66
f 71/71/66 66/66/61 72/72/67
f 59/59/54 72/72/67 66/66/61
f 72/72/67 59/59/54 73/73/68
f 58/58/37 73/73/68 59/59/54
f 73/73/68 74/74/38 72/72/67
f 72/72/67 75/75/69 71/71/66
f 75/75/69 72/72/67 74/74/38
f 74/74/38 76/76/39 75/75/69
f 71/71/66 77/77/70 70/70/65
f 77/77/70 71/71/66 75/75/69
f 75/75/69 78/78/71 77/77/70
f 78/78/71 75/75/69 76/76/39
f 76/76/39 79/79/40 78/78/71
f 80/80/72 78/78/71 79/79/40
f 77/77/70 78/78/71 80/80/72
f 80/80/72 81/81/73 77/77/70
f 70/70/65 77/77/70 81/81/73
f 81/81/73 82/82/74 70/70/65
f 70/70/65 82/82/74 83/83/75
f 82/82/74 81/81/73 31/31/28
f 29/29/9 31/31/28 81/81/73
f 81/81/73 80/80/72 29/29/9
f 29/29/9 80/80/72 84/84/76
f 79/79/40 84/84/76 80/80/72
f 9/9/9 49/49/46 32/32/29
f 69/69/64 85/85/77 52/52/49
f 83/83/75 85/85/77 69/69/64
f 69/69/64 68/68/63 83/83/75
f 83/83/75 68/68/63 70/70/65
f 52/52/49 86/86/78 27/27/27
f 11/11/11 16/16/16 87/87/79
f 88/88/80 89/89/81 90/90/82
f 89/89/81 91/91/83 90/90/82
f 90/90/82 91/91/83 92/92/84
f 91/91/83 8/8/8 92/92/84
f 11/11/11 92/92/84 8/8/8
f 87/87/79 92/92/84 11/11/11
f 92/92/84 87/87/79 90/90/82
f 93/93/85 90/90/82 87/87/79
f 90/90/82 93/93/85 88/88/80
f 88/88/80 93/93/85 94/94/86
f 94/94/86 95/95/87 88/88/80
f 96/96/88 95/95/87 94/94/86
f 87/87/79 16/16/16 14/14/14
f 52/52/49 85/85/77 97/97/89
f 97/97/89 86/86/78 52/52/49
f 98/98/90 86/86/78 97/97/89
f 86/86/78 98/98/90 25/25/25
f 25/25/25 98/98/90 99/99/91
f 99/99/91 22/22/22 25/25/25
f 100/100/92 97/97/89 101/101/93
f 97/97/89 100/100/92 102/102/94
f 97/97/89 102/102/94 98/98/90
f 98/98/90 102/102/94 103/103/95
f 103/103/95 99/99/91 98/98/90
f 99/99/91 103/103/95 104/104/96
f 104/104/96 21/21/21 99/99/91
f 105/105/97 21/21/21 104/104/96
f 21/21/21 105/105/97 15/15/15
f 14/14/14 15/15/15 105/105/97
f 87/87/79 106/106/98 93/93/85
f 94/94/86 93/93/85 106/106/98
f 105/105/97 106/106/98 14/14/14
f 106/106/98 105/105/97 94/94/86
f 104/104/96 94/94/86 105/105/97
f 94/94/86 104/104/96 96/96/88
f 96/96/88 104/104/96 103/103/95
f 103/103/95 107/107/99 96/96/88
f 107/107/99 103/103/95 102/102/94
f 102/102/94 108/108/100 107/107/99
f 102/102/94 109/109/92 108/108/100
f 108/108/100 109/109/92 100/100/92
f 100/100/92 109/109/92 102/102/94
f 110/110/81 111/111/101 112/112/102
f 112/112/102 111/111/101 113/113/103
f 113/113/103 114/114/104 112/112/102
f 108/108/100 114/114/104 113/113/103
f 108/108/100 100/100/92 114/114/104
f 112/112/102 115/115/105 110/110/81
f 112/112/102 30/30/8 115/115/105
f 30/30/8 112/112/102 116/116/106
f 116/116/106 112/112/102 114/114/104
f 114/114/104 101/101/93 116/116/106
f 101/101/93 114/114/104 100/100/92
f 97/97/89 85/85/77 83/83/75
f 14/14/14 106/106/98 87/87/79
f 116/116/106 31/31/28 30/30/8
f 22/22/22 99/99/91 21/21/21
f 25/25/25 27/27/27 86/86/78
f 83/83/75 101/101/93 97/97/89
f 116/116/106 101/101/93 83/83/75
f 83/83/75 82/82/74 116/116/106
f 31/31/28 116/116/106 82/82/74
