# Blender v2.83.2 OBJ File: ''
# www.blender.org
mtllib untitled.mtl
o DwarfFemale_HD_SDR
v -0.143075 0.927614 0.303639
v -0.134514 0.944792 0.335610
v -0.101037 0.952139 0.345403
v -0.073139 0.937278 0.312500
v -0.210494 0.912328 0.348720
v -0.191400 0.903164 0.382331
v -0.218614 0.944797 0.434906
v -0.252469 0.968233 0.410256
v -0.195417 0.950128 0.328589
v -0.224453 1.001586 0.375056
v -0.179963 0.966495 0.364322
v -0.195605 0.985082 0.382023
v -0.059989 0.907219 0.327509
v -0.143628 0.894431 0.318847
v -0.181867 0.990789 0.474728
v -0.206683 1.029664 0.456914
v -0.072136 0.899575 0.362181
v -0.130906 0.886514 0.353547
v -0.082797 0.981347 0.371970
v -0.042436 0.983705 0.350492
v -0.016497 0.956939 0.368834
v -0.045847 0.938475 0.398636
v -0.170534 0.955291 0.353652
v -0.134514 0.944792 0.335610
v -0.143075 0.927614 0.303639
v -0.143628 0.894431 0.318847
v -0.130906 0.886514 0.353547
v -0.083161 1.010535 0.400014
v -0.054811 1.029792 0.390092
v -0.025525 1.014858 0.422650
v -0.173355 1.004329 0.401201
v -0.128869 1.061922 0.419067
v -0.123486 1.028914 0.417423
v -0.165580 1.015955 0.411767
v -0.051461 0.982692 0.442456
v -0.117944 1.053764 0.469242
v -0.111997 1.008483 0.478597
v -0.192136 0.909403 0.467806
v -0.161825 0.949717 0.500145
v -0.072311 0.871047 0.402567
v -0.121836 0.854922 0.395628
v -0.047997 0.904886 0.433020
v -0.130906 0.886514 0.353547
v -0.121836 0.854922 0.395628
v -0.176019 0.873328 0.426522
v -0.056394 0.941981 0.471506
v -0.103547 0.963025 0.504392
v -0.112153 0.822219 0.429242
v -0.063133 0.835647 0.435036
v -0.055842 0.812761 0.449747
v -0.050658 0.903367 0.506070
v -0.036258 0.869719 0.466575
v -0.096969 0.920919 0.536695
v -0.165550 0.840739 0.463264
v -0.112153 0.822219 0.429242
v -0.021978 0.851375 0.484092
v -0.049190 0.832224 0.503851
v -0.075036 0.811000 0.483380
v -0.036717 0.886131 0.531545
v -0.148892 0.908344 0.533433
v -0.151719 0.890344 0.559011
v -0.094333 0.902658 0.564439
v -0.177711 0.871125 0.500178
v -0.056860 0.855701 0.538730
v -0.109017 0.796328 0.442464
v -0.166042 0.816989 0.482025
v -0.109017 0.796328 0.442464
v -0.102580 0.811221 0.488649
v -0.133205 0.819945 0.500926
v -0.102580 0.811221 0.488649
v -0.092331 0.864862 0.555959
v -0.123539 0.858165 0.549759
v -0.141158 0.845913 0.534011
v -0.183083 0.846739 0.520131
v -0.144743 0.830702 0.515387
v -0.196111 1.042872 0.407650
vt 0.001900 0.746100
vt 0.001900 0.652300
vt 0.028400 0.652300
vt 0.028400 0.746100
vt 0.222600 0.699200
vt 0.222600 0.652300
vt 0.191800 0.652300
vt 0.191800 0.699200
vt 0.222600 0.746100
vt 0.191800 0.746100
vt 0.213000 0.652300
vt 0.191800 0.652300
vt 0.028400 0.699200
vt 0.001900 0.699200
vt 0.162500 0.652300
vt 0.162500 0.699200
vt 0.028400 0.652300
vt 0.001900 0.652300
vt 0.064300 0.652300
vt 0.064300 0.746100
vt 0.064300 0.699200
vt 0.064300 0.652300
vt 0.232100 0.652300
vt 0.248200 0.652300
vt 0.248200 0.746100
vt 0.248200 0.699200
vt 0.248200 0.652300
vt 0.099400 0.652300
vt 0.099400 0.746100
vt 0.099400 0.699200
vt 0.177800 0.652300
vt 0.129700 0.746100
vt 0.117300 0.652300
vt 0.162500 0.652300
vt 0.099400 0.652300
vt 0.129700 0.699200
vt 0.129700 0.652300
vt 0.191800 0.617200
vt 0.162500 0.617200
vt 0.028400 0.617200
vt 0.001900 0.617200
vt 0.064300 0.617200
vt 0.248100 0.652300
vt 0.248100 0.617200
vt 0.222600 0.617200
vt 0.099400 0.617200
vt 0.129700 0.617200
vt 0.001900 0.582000
vt 0.028400 0.582000
vt 0.028400 0.543000
vt 0.099400 0.582000
vt 0.064300 0.582000
vt 0.129700 0.582000
vt 0.222600 0.582000
vt 0.248100 0.582000
vt 0.064300 0.543000
vt 0.064300 0.500000
vt 0.014800 0.500000
vt 0.099400 0.543000
vt 0.162500 0.582000
vt 0.162500 0.543000
vt 0.129700 0.543000
vt 0.191800 0.582000
vt 0.101600 0.500000
vt 0.001900 0.543000
vt 0.222600 0.543000
vt 0.248100 0.543000
vt 0.248100 0.500000
vt 0.215800 0.500000
vt 0.002000 0.500000
vt 0.136900 0.500000
vt 0.168900 0.500000
vt 0.189300 0.500000
vt 0.191800 0.543000
vt 0.202700 0.500000
vt 0.162500 0.746100
vn -0.1103 0.2093 -0.9716
vn 0.0279 0.8912 -0.4527
vn -0.1934 0.8216 -0.5363
vn 0.2698 0.2665 -0.9253
vn -0.7070 -0.5868 -0.3947
vn -0.5976 -0.7995 -0.0598
vn -0.7894 -0.3920 0.4725
vn -0.9906 -0.0702 0.1174
vn -0.3612 0.4148 -0.8351
vn -0.4499 0.6105 -0.6518
vn 0.4304 0.7543 -0.4957
vn 0.4994 0.6155 -0.6098
vn 0.5757 -0.6273 -0.5246
vn -0.1437 -0.7723 -0.6188
vn -0.4543 0.1966 0.8689
vn -0.6082 0.5462 0.5760
vn 0.5576 -0.8006 -0.2194
vn -0.0499 -0.9269 -0.3721
vn -0.3686 0.6804 -0.6335
vn 0.3346 0.5780 -0.7443
vn 0.9752 -0.1515 -0.1613
vn 0.9050 -0.3882 0.1740
vn 0.2350 0.8792 -0.4144
vn -0.1104 0.2093 -0.9716
vn -0.4413 0.2828 -0.8516
vn 0.2063 0.7857 -0.5832
vn 0.8660 0.3941 0.3077
vn 0.4290 0.3860 -0.8167
vn -0.0179 0.8700 -0.4927
vn -0.1600 0.0319 -0.9866
vn 0.2933 0.2050 -0.9338
vn 0.7800 0.0601 0.6229
vn 0.1435 0.7263 0.6722
vn 0.2363 0.3633 0.9012
vn -0.9216 -0.1825 0.3426
vn -0.5189 0.3383 0.7851
vn 0.6337 -0.5280 -0.5654
vn -0.1231 -0.7665 -0.6304
vn 0.9844 -0.0661 -0.1629
vn -0.0499 -0.9269 -0.3720
vn -0.7582 -0.6043 -0.2451
vn 0.8595 0.3212 0.3976
vn 0.2605 0.5628 0.7845
vn -0.1731 -0.6169 -0.7678
vn 0.5897 -0.3818 -0.7117
vn 0.6133 -0.6924 -0.3800
vn 0.7798 0.5927 0.2013
vn 0.9246 0.1662 -0.3428
vn 0.1973 0.7502 0.6311
vn -0.8069 -0.4517 -0.3806
vn 0.9816 -0.1844 -0.0504
vn 0.6989 -0.6541 0.2894
vn 0.3582 -0.9089 0.2136
vn 0.8256 0.2739 0.4933
vn -0.5763 0.5691 0.5865
vn -0.5338 0.2202 0.8164
vn 0.1720 0.4131 0.8943
vn -0.9884 0.0638 0.1380
vn 0.6412 -0.2781 0.7153
vn -0.1160 -0.8879 -0.4451
vn -0.6532 -0.7550 -0.0585
vn -0.0439 -0.9472 0.3176
vn -0.1529 -0.9008 0.4065
vn -0.0438 -0.9472 0.3176
vn 0.1772 -0.2320 0.9564
vn -0.2122 -0.4371 0.8740
vn -0.2799 -0.5940 0.7542
vn -0.8614 -0.3218 0.3929
vn -0.2368 -0.8002 0.5510
vn -0.2957 0.8204 -0.4895
usemtl Default_OBJ
s 1
f 1/1/1 2/2/2 3/3/3
f 3/3/3 4/4/4 1/1/1
f 5/5/5 6/6/6 7/7/7
f 7/7/7 8/8/8 5/5/5
f 9/9/9 5/5/5 8/8/8
f 8/8/8 10/10/10 9/9/9
f 11/11/11 9/9/9 10/10/10
f 10/10/10 12/12/12 11/11/11
f 1/1/1 4/4/4 13/13/13
f 13/13/13 14/14/14 1/1/1
f 15/15/15 16/16/16 8/8/8
f 8/8/8 7/7/7 15/15/15
f 14/14/14 13/13/13 17/17/17
f 17/17/17 18/18/18 14/14/14
f 4/4/4 3/3/3 19/19/19
f 19/19/19 20/20/20 4/4/4
f 13/13/13 4/4/4 20/20/20
f 20/20/20 21/21/21 13/13/13
f 17/17/17 13/13/13 21/21/21
f 21/21/21 22/22/22 17/17/17
f 9/9/9 23/23/23 24/24/2
f 24/24/2 25/25/24 9/9/9
f 5/5/5 9/9/9 25/25/24
f 25/25/24 26/26/14 5/5/5
f 6/6/6 5/5/5 26/26/14
f 26/26/14 27/27/18 6/6/6
f 9/9/9 11/11/11 23/23/23
f 10/10/10 8/8/8 16/16/16
f 20/20/20 19/19/19 28/28/25
f 28/28/25 29/29/26 20/20/20
f 21/21/21 20/20/20 29/29/26
f 29/29/26 30/30/27 21/21/21
f 10/10/10 31/31/28 12/12/12
f 32/32/29 33/33/30 34/34/31
f 22/22/22 21/21/21 30/30/27
f 30/30/27 35/35/32 22/22/22
f 36/36/33 37/37/34 35/35/32
f 37/37/34 36/36/33 16/16/16
f 29/29/26 28/28/25 33/33/30
f 35/35/32 30/30/27 36/36/33
f 32/32/29 36/36/33 30/30/27
f 30/30/27 29/29/26 32/32/29
f 16/16/16 15/15/15 37/37/34
f 33/33/30 32/32/29 29/29/26
f 38/38/35 7/7/7 6/6/6
f 39/39/36 15/15/15 7/7/7
f 7/7/7 38/38/35 39/39/36
f 18/18/18 17/17/17 40/40/37
f 40/40/37 41/41/38 18/18/18
f 40/40/37 17/17/17 22/22/22
f 22/22/22 42/42/39 40/40/37
f 43/43/40 44/44/38 45/45/41
f 45/45/41 6/6/6 43/43/40
f 42/42/39 22/22/22 35/35/32
f 35/35/32 46/46/42 42/42/39
f 37/37/34 47/47/43 46/46/42
f 37/37/34 15/15/15 39/39/36
f 39/39/36 47/47/43 37/37/34
f 46/46/42 35/35/32 37/37/34
f 6/6/6 45/45/41 38/38/35
f 48/48/44 49/49/45 50/50/46
f 42/42/39 46/46/42 51/51/47
f 51/51/47 52/52/48 42/42/39
f 53/53/49 51/51/47 46/46/42
f 38/38/35 45/45/41 54/54/50
f 55/55/44 54/54/50 45/45/41
f 40/40/37 42/42/39 52/52/48
f 52/52/48 49/49/45 40/40/37
f 56/56/51 57/57/52 58/58/53
f 57/57/52 56/56/51 59/59/54
f 60/60/55 61/61/56 62/62/57
f 61/61/56 60/60/55 63/63/58
f 49/49/45 48/48/44 41/41/38
f 41/41/38 40/40/37 49/49/45
f 46/46/42 47/47/43 53/53/49
f 53/53/49 47/47/43 39/39/36
f 59/59/54 64/64/59 57/57/52
f 62/62/57 53/53/49 60/60/55
f 50/50/46 49/49/45 52/52/48
f 39/39/36 60/60/55 53/53/49
f 63/63/58 60/60/55 39/39/36
f 50/50/46 65/65/60 48/48/44
f 52/52/48 56/56/51 50/50/46
f 56/56/51 52/52/48 51/51/47
f 45/45/41 44/44/38 55/55/44
f 50/50/46 58/58/53 65/65/60
f 39/39/36 38/38/35 63/63/58
f 58/58/53 50/50/46 56/56/51
f 51/51/47 59/59/54 56/56/51
f 59/59/54 51/51/47 53/53/49
f 66/66/61 54/54/50 55/55/44
f 55/55/44 67/67/60 66/66/61
f 67/67/60 68/68/62 66/66/61
f 66/66/61 68/68/62 69/69/63
f 58/58/53 70/70/64 65/65/60
f 64/64/59 59/59/54 62/62/57
f 62/62/57 71/71/65 64/64/59
f 71/71/65 62/62/57 61/61/56
f 61/61/56 72/72/66 71/71/65
f 61/61/56 73/73/67 72/72/66
f 74/74/68 73/73/67 61/61/56
f 73/73/67 74/74/68 75/75/69
f 63/63/58 74/74/68 61/61/56
f 75/75/69 66/66/61 69/69/63
f 66/66/61 75/75/69 74/74/68
f 54/54/50 66/66/61 74/74/68
f 74/74/68 63/63/58 54/54/50
f 54/54/50 63/63/58 38/38/35
f 53/53/49 62/62/57 59/59/54
f 76/76/70 16/16/16 36/36/33
f 16/16/16 76/76/70 10/10/10
f 76/76/70 31/31/28 10/10/10
f 76/76/70 34/34/31 31/31/28
f 34/34/31 76/76/70 32/32/29
f 36/36/33 32/32/29 76/76/70
